<svg width="72" height="72" viewBox="0 0 72 72" fill="none" xmlns="http://www.w3.org/2000/svg">
<g clip-path="url(#clip0_1060_3112)">
<path d="M36.0002 29.8984C34.3207 29.8984 32.6789 30.3872 31.2824 31.3028C29.8859 32.2184 28.7974 33.5198 28.1547 35.0425C27.512 36.5651 27.3438 38.2406 27.6715 39.857C27.9991 41.4734 28.8079 42.9582 29.9955 44.1236C31.1832 45.289 32.6963 46.0826 34.3435 46.4041C35.9908 46.7256 37.6983 46.5606 39.25 45.9299C40.8017 45.2992 42.1279 44.2312 43.061 42.8608C43.9941 41.4905 44.4922 39.8794 44.4922 38.2313C44.4897 36.0221 43.5942 33.904 42.0022 32.3418C40.4102 30.7796 38.2517 29.9009 36.0002 29.8984ZM36.0002 44.8549C34.6652 44.8549 33.3602 44.4664 32.2501 43.7386C31.1401 43.0108 30.2749 41.9764 29.7641 40.7661C29.2532 39.5558 29.1195 38.224 29.3799 36.9391C29.6404 35.6543 30.2833 34.4741 31.2273 33.5478C32.1713 32.6214 33.374 31.9906 34.6834 31.735C35.9928 31.4794 37.35 31.6106 38.5834 32.1119C39.8168 32.6133 40.871 33.4622 41.6127 34.5515C42.3544 35.6407 42.7502 36.9213 42.7502 38.2313C42.7481 39.9874 42.0363 41.6709 40.7709 42.9126C39.5055 44.1543 37.7898 44.8528 36.0002 44.8549Z" fill="black"/>
<path d="M50.2258 25.626H44.886C44.6983 25.6266 44.5139 25.5766 44.3531 25.4815C44.1922 25.3865 44.061 25.25 43.9737 25.0869L43.965 25.0719L42.4858 22.0201L42.4764 22.003C42.2475 21.5497 41.8938 21.1684 41.4553 20.9024C41.0168 20.6364 40.5111 20.4963 39.9956 20.4981H32.1082C31.5929 20.4962 31.0873 20.6361 30.6488 20.9018C30.2103 21.1676 29.8565 21.5485 29.6274 22.0015L28.1388 25.0698L28.1308 25.084C28.0438 25.2477 27.9126 25.3848 27.7516 25.4804C27.5906 25.576 27.4059 25.6263 27.2177 25.626H21.7742C20.7736 25.6271 19.8143 26.0177 19.1067 26.712C18.3992 27.4063 18.0012 28.3476 18 29.3295V48.5593C18.0012 49.5411 18.3992 50.4825 19.1067 51.1768C19.8143 51.8711 20.7736 52.2616 21.7742 52.2628H50.2258C51.2264 52.2616 52.1857 51.8711 52.8933 51.1768C53.6008 50.4825 53.9988 49.5411 54 48.5593V29.3295C53.9988 28.3476 53.6008 27.4063 52.8933 26.712C52.1857 26.0177 51.2264 25.6271 50.2258 25.626ZM52.2581 48.5593C52.2581 48.8211 52.2055 49.0805 52.1034 49.3224C52.0012 49.5644 51.8515 49.7842 51.6628 49.9694C51.4741 50.1545 51.2501 50.3014 51.0035 50.4017C50.757 50.5019 50.4927 50.5535 50.2258 50.5535H21.7742C21.2352 50.5535 20.7183 50.3434 20.3372 49.9694C19.956 49.5954 19.7419 49.0882 19.7419 48.5593V29.3295C19.7419 28.8006 19.956 28.2934 20.3372 27.9194C20.7183 27.5454 21.2352 27.3353 21.7742 27.3353H27.2177C27.733 27.337 28.2384 27.1971 28.6768 26.9314C29.1151 26.6656 29.4688 26.2847 29.6978 25.8318L31.1865 22.7643L31.1944 22.7487C31.2818 22.5851 31.4132 22.4482 31.5743 22.3528C31.7354 22.2574 31.9201 22.2071 32.1082 22.2074H39.9956C40.1838 22.2073 40.3684 22.2578 40.5295 22.3533C40.6906 22.4488 40.8219 22.5858 40.9094 22.7494L40.9159 22.7615L42.4045 25.8304C42.6334 26.2838 42.9873 26.6651 43.4259 26.9311C43.8646 27.1972 44.3704 27.3372 44.886 27.3353H50.2258C50.4927 27.3353 50.757 27.3869 51.0035 27.4871C51.2501 27.5873 51.4741 27.7342 51.6628 27.9194C51.8515 28.1046 52.0012 28.3244 52.1034 28.5664C52.2055 28.8083 52.2581 29.0676 52.2581 29.3295V48.5593Z" fill="black"/>
<path d="M50.2256 27.335H44.8858C44.3702 27.3368 43.8643 27.1968 43.4257 26.9308C42.9871 26.6648 42.6332 26.2835 42.4043 25.8301L40.9157 22.7611L40.9091 22.749C40.8217 22.5855 40.6903 22.4485 40.5293 22.353C40.3682 22.2574 40.1835 22.207 39.9953 22.207H32.108C31.9198 22.2067 31.7352 22.257 31.5741 22.3525C31.413 22.4479 31.2816 22.5848 31.1942 22.7483L31.1862 22.764L29.6976 25.8315C29.4686 26.2844 29.1149 26.6653 28.6765 26.931C28.2382 27.1968 27.7327 27.3367 27.2175 27.335H21.774C21.235 27.335 20.7181 27.5451 20.3369 27.9191C19.9558 28.293 19.7417 28.8003 19.7417 29.3292V48.5589C19.7417 49.0878 19.9558 49.595 20.3369 49.969C20.7181 50.343 21.235 50.5531 21.774 50.5531H50.2256C50.4924 50.5531 50.7567 50.5015 51.0033 50.4013C51.2498 50.3011 51.4739 50.1542 51.6626 49.969C51.8513 49.7838 52.001 49.564 52.1031 49.3221C52.2053 49.0801 52.2578 48.8208 52.2578 48.5589V29.3292C52.2578 29.0673 52.2053 28.808 52.1031 28.566C52.001 28.3241 51.8513 28.1042 51.6626 27.9191C51.4739 27.7339 51.2498 27.587 51.0033 27.4868C50.7567 27.3865 50.4924 27.335 50.2256 27.335ZM35.9998 46.5647C34.3202 46.5647 32.6784 46.076 31.2819 45.1604C29.8854 44.2447 28.797 42.9433 28.1542 41.4207C27.5115 39.8981 27.3433 38.2226 27.671 36.6062C27.9987 34.9897 28.8074 33.505 29.9951 32.3396C31.1827 31.1742 32.6958 30.3806 34.3431 30.059C35.9903 29.7375 37.6978 29.9025 39.2495 30.5332C40.8012 31.1639 42.1274 32.232 43.0606 33.6023C43.9937 34.9727 44.4917 36.5837 44.4917 38.2318C44.4892 40.4411 43.5937 42.5592 42.0017 44.1214C40.4097 45.6836 38.2512 46.5623 35.9998 46.5647ZM48.2659 33.1039H46.3788V31.2521H48.2659V33.1039Z" fill="#F2F2F2"/>
<path d="M36 44.8556C39.7279 44.8556 42.75 41.8901 42.75 38.232C42.75 34.5739 39.7279 31.6084 36 31.6084C32.2721 31.6084 29.25 34.5739 29.25 38.232C29.25 41.8901 32.2721 44.8556 36 44.8556Z" fill="#F2F2F2"/>
<path d="M48.266 31.2529H46.3789V33.1047H48.266V31.2529Z" fill="black"/>
</g>
<defs>
<clipPath id="clip0_1060_3112">
<rect width="36" height="31.7647" fill="white" transform="translate(18 20.498)"/>
</clipPath>
</defs>
</svg>
