<svg width="72" height="72" viewBox="0 0 72 72" fill="none" xmlns="http://www.w3.org/2000/svg">
<g clip-path="url(#clip0_1060_3077)">
<path d="M19.2009 12.5935C31.2999 12.5935 39.6085 6.32617 45.4385 6.32617C51.2685 6.32617 63.5128 9.6776 63.5128 36.4977C63.5128 63.3179 47.0408 67.2535 40.6283 67.2535C10.6002 67.2553 -2.22654 12.5935 19.2009 12.5935Z" fill="#F2F2F2"/>
<path d="M60.5217 54.7192C59.0751 54.7192 57.8979 53.542 57.8979 52.0954C57.8979 50.6489 59.0751 49.4717 60.5217 49.4717C61.9683 49.4717 63.1455 50.6489 63.1455 52.0954C63.1455 53.542 61.9683 54.7192 60.5217 54.7192ZM60.5217 51.2209C60.0389 51.2209 59.6471 51.6144 59.6471 52.0954C59.6471 52.5765 60.0389 52.97 60.5217 52.97C61.0045 52.97 61.3963 52.5765 61.3963 52.0954C61.3963 51.6144 61.0045 51.2209 60.5217 51.2209Z" fill="#A4AFC1"/>
<path d="M16.6836 12.8643L19.1573 10.3905L20.3942 11.6274L17.9204 14.1011L16.6836 12.8643Z" fill="#A4AFC1"/>
<path d="M9.57227 19.9746L12.046 17.5009L13.2828 18.7378L10.8091 21.2115L9.57227 19.9746Z" fill="#A4AFC1"/>
<path d="M9.88184 11.626L11.1187 10.3891L13.5924 12.8628L12.3555 14.0997L9.88184 11.626Z" fill="#A4AFC1"/>
<path d="M42.3262 57.7228C46.8872 57.7228 50.5846 54.0254 50.5846 49.4644C50.5846 44.9034 46.8872 41.2061 42.3262 41.2061C37.7653 41.2061 34.0679 44.9034 34.0679 49.4644C34.0679 54.0254 37.7653 57.7228 42.3262 57.7228Z" fill="#F9F3F1"/>
<path d="M48.165 55.3043C44.9401 58.5293 39.7116 58.5293 36.4866 55.3043C36.3706 55.1884 36.2583 55.0688 36.1514 54.9473C39.3763 57.2426 43.8798 56.9435 46.7713 54.052C49.8785 50.9449 49.9918 45.9764 47.1102 42.7334C47.4799 42.9962 47.8333 43.2934 48.165 43.6251C51.3909 46.8501 51.3909 52.0794 48.165 55.3043Z" fill="#EFE2DD"/>
<path d="M49.6727 21.7872C53.2448 25.2977 53.2946 31.0393 49.7841 34.6114L36.6392 47.9863C33.1287 51.5583 27.3871 51.6082 23.815 48.0976C20.243 44.5871 20.1931 38.8455 23.7037 35.2734L36.8485 21.8985C40.3591 18.3265 46.1007 18.2766 49.6727 21.7872Z" fill="#209F84"/>
<path d="M23.8156 48.0974C23.6969 47.9811 23.5819 47.8617 23.4712 47.7369C26.9752 49.8073 31.5648 49.3127 34.5456 46.2794L47.6901 32.9054C51.0842 29.4517 51.1502 23.9719 47.9234 20.4414C48.5455 20.8081 49.1348 21.2569 49.674 21.7865C53.2464 25.2969 53.2955 31.0386 49.7851 34.611L36.6402 47.9863C33.1301 51.5574 27.388 51.6077 23.8156 48.0974Z" fill="#57BE92"/>
<path d="M30.276 28.5859L43.2116 41.2989L36.6392 47.9863C33.1287 51.5584 27.3871 51.6082 23.815 48.0977C20.243 44.5871 20.1931 38.8455 23.7037 35.2735L30.276 28.5859Z" fill="#EE6161"/>
<path d="M23.8156 48.0979C23.7487 48.0327 23.6839 47.9655 23.6191 47.898C23.5689 47.8461 23.5195 47.7915 23.4712 47.7374C26.9752 49.8078 31.5648 49.3132 34.5456 46.28L41.294 39.4141L43.2122 41.2984L36.6402 47.9868C33.1301 51.558 27.388 51.6082 23.8156 48.0979Z" fill="#E94444"/>
<path d="M43.7387 18.2108C43.2007 18.1885 42.7366 18.6102 42.714 19.1536C42.6913 19.6968 43.1134 20.1556 43.6566 20.1783C45.6602 20.2618 47.552 21.0826 48.9834 22.4895C50.5235 24.0031 51.3819 26.0256 51.4006 28.185C51.4194 30.3442 50.5962 32.3815 49.0826 33.9215L43.2003 39.9067L31.6693 28.574L37.5516 22.5887C38.1815 21.9477 38.9042 21.421 39.6994 21.0231C40.1857 20.7798 40.3827 20.1882 40.1393 19.7021C39.8961 19.2157 39.3046 19.019 38.8183 19.262C37.8283 19.7573 36.9296 20.4121 36.147 21.2084L23.0023 34.5835C20.2097 37.425 19.4528 41.5189 20.7159 45.0396C21.2103 46.4173 22.0139 47.7072 23.1257 48.8C23.244 48.9163 23.3648 49.0294 23.4878 49.1392C25.7625 51.1686 28.9105 52.1164 31.9103 51.5342C33.9727 51.1339 35.8625 50.1825 37.3424 48.6767L50.487 35.3018C52.3693 33.3866 53.393 30.8531 53.3698 28.1679C53.3465 25.4828 52.279 22.9675 50.3637 21.0852C48.5834 19.3355 46.2306 18.3147 43.7387 18.2108ZM35.9378 47.2963C34.4359 48.8245 32.3746 49.695 30.2425 49.7135C28.0876 49.7281 26.046 48.909 24.506 47.3955C21.3269 44.2711 21.2824 39.1427 24.4069 35.9635L30.289 29.9783L41.8201 41.311C41.8201 41.3111 35.9389 47.2953 35.9378 47.2963Z" fill="black"/>
<ellipse cx="42.0067" cy="49.5321" rx="8.15225" ry="8.15226" fill="white"/>
<path fill-rule="evenodd" clip-rule="evenodd" d="M42.0003 55.9863C45.7922 55.9863 48.8662 52.9123 48.8662 49.1204C48.8662 45.3285 45.7922 42.2546 42.0003 42.2546C38.2084 42.2546 35.1344 45.3285 35.1344 49.1204C35.1344 52.9123 38.2084 55.9863 42.0003 55.9863ZM42.0003 57.8903C46.8438 57.8903 50.7702 53.9639 50.7702 49.1204C50.7702 44.277 46.8438 40.3506 42.0003 40.3506C37.1569 40.3506 33.2305 44.277 33.2305 49.1204C33.2305 53.9639 37.1569 57.8903 42.0003 57.8903Z" fill="black"/>
<path d="M45.2898 53.1052C45.4638 53.1052 45.6377 53.0389 45.7705 52.9061C46.0358 52.6408 46.0358 52.2104 45.7705 51.945L39.8438 46.0183C39.5783 45.753 39.148 45.753 38.8826 46.0183C38.6173 46.2837 38.6173 46.7141 38.8826 46.9794L44.8093 52.9061C44.942 53.0389 45.116 53.1052 45.2898 53.1052Z" fill="black"/>
</g>
<defs>
<clipPath id="clip0_1060_3077">
<rect width="60.9274" height="60.9274" fill="white" transform="translate(5.53613 6.19629)"/>
</clipPath>
</defs>
</svg>
