<svg width="72" height="72" viewBox="0 0 72 72" fill="none" xmlns="http://www.w3.org/2000/svg">
<rect x="5.36719" y="6" width="60" height="60" rx="12" fill="#E9E9E9"/>
<path d="M50.9565 39.0859L41.4736 29.5001L31.3636 19.6192C29.7198 17.9664 27.5186 16.995 25.1963 16.8977C22.8739 16.8005 20.6 17.5844 18.8253 19.0941L18.5967 19.2945C18.4793 19.4033 18.3619 19.5105 18.2491 19.6239C17.3881 20.4895 16.7051 21.5173 16.2391 22.6485C15.7731 23.7797 15.5332 24.9922 15.5332 26.2166C15.5332 27.4411 15.7731 28.6535 16.2391 29.7847C16.7051 30.9159 17.3881 31.9437 18.2491 32.8093L28.3591 42.6902L37.8436 52.2728C38.7046 53.1388 39.7268 53.8257 40.8517 54.2944C41.9767 54.7631 43.1824 55.0043 44.4 55.0043C45.6177 55.0043 46.8234 54.7631 47.9484 54.2944C49.0733 53.8257 50.0955 53.1388 50.9565 52.2728C51.8175 51.4069 52.5005 50.3788 52.9664 49.2474C53.4324 48.1159 53.6723 46.9032 53.6723 45.6786C53.6723 44.4539 53.4324 43.2412 52.9664 42.1098C52.5005 40.9783 51.8175 39.9503 50.9565 39.0843V39.0859Z" fill="#F2F2F2"/>
<path d="M16.2418 21.1674C16.2141 21.0409 16.2125 20.9101 16.2369 20.7829C16.2613 20.6557 16.3113 20.5349 16.3839 20.4279C16.7429 19.9002 17.1499 19.4072 17.5996 18.9551C18.545 17.9987 19.6696 17.2404 20.9084 16.7241C22.1472 16.2078 23.4755 15.9438 24.8164 15.9473H24.9168C27.622 15.9815 30.2047 17.0874 32.1042 19.025L49.8223 36.6701C49.9976 36.8465 50.0961 37.0857 50.0961 37.3351C50.0961 37.5845 49.9976 37.8236 49.8223 38C49.7354 38.0873 49.6324 38.1566 49.519 38.2038C49.4055 38.2511 49.2839 38.2754 49.1611 38.2754C48.9132 38.2754 48.6753 38.1764 48.5 38L39.1666 28.502L30.7063 20.2803C29.1422 18.7088 27.0218 17.826 24.811 17.826C22.6001 17.826 20.4797 18.7088 18.9156 20.2803C18.5475 20.6502 18.2145 21.0538 17.9209 21.4859C17.7886 21.6813 17.588 21.8195 17.3591 21.8731C17.1301 21.9266 16.8895 21.8915 16.6851 21.7749H16.6743C16.5651 21.7083 16.4704 21.6201 16.3961 21.5157C16.3217 21.4113 16.2693 21.2928 16.2418 21.1674Z" fill="black"/>
<path d="M51.6149 52.9395C50.6672 53.8932 49.5421 54.6497 48.3037 55.1658C47.0652 55.6819 45.7378 55.9476 44.3973 55.9476C43.0567 55.9476 41.7293 55.6819 40.4909 55.1658C39.2525 54.6497 38.1273 53.8932 37.1797 52.9395L19.8791 35.7707L17.593 33.4744C16.2995 32.174 15.377 30.548 14.9219 28.7664C14.4667 26.9849 14.4956 25.113 15.0056 23.3465C15.0615 23.1513 15.6153 21.2986 16.5712 20.1647C16.7494 20.0306 18.17 20.9472 18.1976 21.1066C17.313 22.4191 16.8418 23.7375 16.799 23.8778C16.3834 25.3197 16.36 26.8474 16.7314 28.3015C17.1029 29.7555 17.8554 31.0827 18.9106 32.1446L25.769 38.7551L38.502 51.6096C39.2744 52.3909 40.1932 53.0103 41.2053 53.4319C42.2174 53.8536 43.3026 54.069 44.3981 54.0659H44.6375C46.2646 54.017 47.8419 53.4903 49.175 52.5508C50.5081 51.6113 51.5387 50.3 52.1399 48.7786C52.7411 47.2571 52.8865 45.592 52.5583 43.9884C52.23 42.3849 51.4424 40.913 50.2926 39.7541L47.8381 37.2854C47.6628 37.1091 47.5642 36.8699 47.5642 36.6205C47.5642 36.3711 47.6628 36.1319 47.8381 35.9555C48.0134 35.7792 48.2513 35.6801 48.4992 35.6801C48.7472 35.6801 48.985 35.7792 49.1604 35.9555L51.6149 38.4211C53.5268 40.3476 54.6006 42.9583 54.6006 45.6803C54.6006 48.4023 53.5268 51.013 51.6149 52.9395Z" fill="black"/>
<path d="M30.1296 41.3441C29.9464 41.3439 29.7674 41.2892 29.6151 41.1867C29.4629 41.0843 29.3442 40.9388 29.2741 40.7685C29.2041 40.5983 29.1857 40.411 29.2214 40.2303C29.2571 40.0496 29.3452 39.8836 29.4746 39.7532L38.4231 30.82C38.5089 30.7323 38.6112 30.6626 38.724 30.6149C38.8367 30.5672 38.9578 30.5424 39.0801 30.542C39.2025 30.5416 39.3237 30.5655 39.4368 30.6124C39.5499 30.6594 39.6526 30.7283 39.7391 30.8154C39.8255 30.9025 39.894 31.0059 39.9405 31.1197C39.9871 31.2335 40.0107 31.3554 40.0102 31.4785C40.0096 31.6015 39.9848 31.7233 39.9372 31.8366C39.8897 31.95 39.8202 32.0528 39.733 32.139L30.7845 41.0722C30.6106 41.2465 30.3751 41.3443 30.1296 41.3441Z" fill="black"/>
<path d="M40.15 29.4965L39.166 28.5068H39.1676L40.15 29.4965Z" fill="black"/>
</svg>
