<svg width="72" height="72" viewBox="0 0 72 72" fill="none" xmlns="http://www.w3.org/2000/svg">
<path d="M49.3671 18.4551L31.848 37.6422C28.8446 37.1374 25.8415 37.6422 20.836 42.1865C15.8305 46.7308 16.8316 51.7801 18.3333 53.2949C19.8349 54.8096 24.3398 56.8293 30.3464 50.7702C35.1516 45.9229 34.6844 42.0182 33.8502 40.6717C39.8567 35.1175 52.1702 23.7062 53.3715 22.4944C54.8731 20.9796 55.8742 19.4649 53.872 17.4452C52.2703 15.8295 50.2014 17.4452 49.3671 18.4551Z" fill="#F2F2F2"/>
<path d="M16.2407 48.2097C15.6603 50.7638 16.1377 52.9676 17.5851 54.4149C19.0324 55.8623 21.2362 56.3397 23.7903 55.7593C26.2065 55.2102 28.68 53.765 30.7552 51.6898C34.1232 48.3218 35.7057 44.0641 34.8288 40.8857L54.8626 22.1967C55.5787 21.5285 55.9826 20.6209 55.9994 19.6414C56.0164 18.6619 55.6442 17.7411 54.9516 17.0484C54.2589 16.3558 53.3379 15.9836 52.3585 16.0006C51.379 16.0175 50.4716 16.4212 49.8031 17.1376L31.1156 37.1698C29.9043 36.8374 28.4954 36.8577 26.9845 37.2456C24.6636 37.8415 22.2932 39.2617 20.3102 41.2448C18.235 43.32 16.7897 45.7934 16.2407 48.2097ZM27.3988 38.8591C28.7546 38.511 29.978 38.5202 30.9624 38.8686C31.0266 38.9029 31.0941 38.9284 31.1632 38.9448C31.4843 39.0784 31.7781 39.2497 32.0386 39.4604C32.3962 39.7497 32.9207 39.6942 33.21 39.3366C33.4806 39.0021 33.4497 38.5219 33.1522 38.2244C33.1315 38.2037 33.1094 38.1839 33.0862 38.1651C32.9675 38.0692 32.8444 37.9794 32.7177 37.8946L51.0213 18.274C51.3785 17.8912 51.8636 17.6753 52.3872 17.6663C52.9108 17.6572 53.4031 17.8562 53.7735 18.2265C54.1438 18.5968 54.3428 19.0891 54.3337 19.6127C54.3246 20.1364 54.1088 20.6215 53.726 20.9787L33.2971 40.0362C33.015 40.2995 32.9575 40.7123 33.1312 41.0372C34.044 43.6168 32.5966 47.4924 29.5772 50.5118C27.7212 52.3678 25.535 53.6543 23.4211 54.1348C21.4452 54.5837 19.791 54.2649 18.7631 53.2369C17.7351 52.209 17.4162 50.5547 17.8652 48.5789C18.3456 46.465 19.6322 44.2788 21.4882 42.4228C23.2635 40.6476 25.3625 39.3819 27.3988 38.8591ZM22.2735 42.737C22.5988 42.4117 23.1262 42.4117 23.4515 42.737C23.7767 43.0623 23.7768 43.5897 23.4515 43.915C23.2962 44.0703 23.1433 44.2311 22.9971 44.3927C22.6884 44.7338 22.1617 44.7601 21.8205 44.4515C21.4779 44.1458 21.453 43.6161 21.7616 43.275C21.9265 43.0928 22.0987 42.9118 22.2735 42.737ZM21.2635 45.6183C21.5187 45.8734 21.5867 46.2755 21.4044 46.6078C20.2905 48.6382 20.1498 50.5291 21.046 51.4252C21.3713 51.7505 21.3713 52.2779 21.046 52.6032C20.7206 52.9286 20.1932 52.9285 19.868 52.6032C18.413 51.1482 18.4422 48.5439 19.9439 45.8065C20.1652 45.4032 20.6715 45.2556 21.0749 45.4769C21.1457 45.5159 21.2089 45.5637 21.2635 45.6183Z" fill="black"/>
</svg>
