<svg width="72" height="72" viewBox="0 0 72 72" fill="none" xmlns="http://www.w3.org/2000/svg">
<g clip-path="url(#clip0_1006_12751)">
<path fill-rule="evenodd" clip-rule="evenodd" d="M33.4331 19.6224L36.6984 18.7832V24.0758H38.1292V27.5299C40.8609 28.2605 42.6841 29.7801 43.3764 30.6533V55.1403H26.7744L26.9552 30.6533C27.5398 29.7646 29.2054 28.2063 31.9219 27.4917V24.0758H33.4331V19.6224Z" fill="#F2F2F2"/>
<rect x="30.1953" y="37.9834" width="9.80699" height="6.80359" fill="#7A7A7A"/>
<path d="M43.9987 30.8162C44.0001 30.7898 44.0001 30.7634 43.9987 30.737C43.9627 30.6075 43.1856 28.1683 39.0555 27.1393V23.8366C39.0555 23.4393 38.7333 23.1171 38.3359 23.1171H37.5085V18.7999C37.5188 18.5684 37.417 18.3461 37.235 18.2027C37.0628 18.066 36.8375 18.0157 36.6234 18.0659L33.1768 18.8718C32.845 18.9501 32.6137 19.2506 32.6228 19.5914V23.1315H31.8169C31.4195 23.1315 31.0974 23.4537 31.0974 23.851V27.1681C26.9744 28.1755 26.1901 30.6219 26.1541 30.7658C26.1527 30.7922 26.1527 30.8186 26.1541 30.845C26.1504 30.8856 26.1504 30.9266 26.1541 30.9673V55.2805C26.1541 55.6779 26.4763 56.0001 26.8737 56.0001H43.2792C43.6765 56.0001 43.9987 55.6779 43.9987 55.2805V30.9385C44.0024 30.8978 44.0024 30.8569 43.9987 30.8162ZM34.0619 20.1454L36.0694 19.6705V23.1171H34.0619V20.1454ZM32.5436 24.5562H37.5804V26.8803C35.9082 26.6674 34.2158 26.6674 32.5436 26.8803V24.5562ZM35.0548 28.1611C39.1634 28.1611 41.0774 29.3483 41.9336 30.219H28.1688C29.0251 29.3411 30.9463 28.1611 35.0548 28.1611ZM42.5596 54.561H27.5716V31.658H42.5596V54.561Z" fill="black"/>
<path d="M39.293 37.2939H30.8384C29.992 37.2939 29.3058 37.9801 29.3058 38.8266L29.3057 44.052C29.3096 44.8957 29.9946 45.5774 30.8383 45.5774H39.2929C40.1393 45.5774 40.8255 44.8913 40.8255 44.0448L40.8256 38.8266C40.8256 37.9801 40.1395 37.2939 39.293 37.2939ZM39.3864 44.052C39.3864 44.1036 39.3445 44.1456 39.2929 44.1456H30.8383C30.7867 44.1456 30.7447 44.1036 30.7447 44.052L30.7449 38.8194C30.7449 38.7677 30.7868 38.7258 30.8384 38.7258H39.293C39.3446 38.7258 39.3865 38.7677 39.3865 38.8194L39.3864 44.052Z" fill="black"/>
<path d="M45.8481 20.699C45.8481 20.3017 45.526 19.9795 45.1286 19.9795H41.0848C40.6874 19.9795 40.3652 20.3017 40.3652 20.699C40.3652 21.0964 40.6874 21.4186 41.0848 21.4186H45.1358C45.5304 21.4146 45.8481 21.0937 45.8481 20.699Z" fill="black"/>
<path d="M45.3517 16.4542C45.2046 16.0846 44.7858 15.9042 44.4163 16.0512L40.8186 17.4903C40.449 17.6364 40.2678 18.0543 40.4138 18.4239C40.5226 18.6991 40.7888 18.8797 41.0848 18.879C41.1759 18.8793 41.2663 18.8621 41.351 18.8286L44.9487 17.3896C45.3183 17.2426 45.4987 16.8237 45.3517 16.4542Z" fill="black"/>
<path d="M44.9349 23.9874L41.3372 22.5483C40.9676 22.4012 40.5489 22.5817 40.4018 22.9512C40.2547 23.3208 40.4352 23.7396 40.8047 23.8866L44.4025 25.3257C44.4872 25.3592 44.5776 25.3763 44.6687 25.3761C45.066 25.3771 45.389 25.0557 45.39 24.6583C45.3907 24.3624 45.2101 24.0962 44.9349 23.9874Z" fill="black"/>
</g>
<defs>
<clipPath id="clip0_1006_12751">
<rect width="40" height="40" fill="white" transform="translate(16 16)"/>
</clipPath>
</defs>
</svg>
