<svg width="72" height="72" viewBox="0 0 72 72" fill="none" xmlns="http://www.w3.org/2000/svg">
<path d="M47.9594 44.6734C40.4348 54.6217 29.0729 58.8002 22.5819 54.0062C16.091 49.2123 16.929 37.2613 24.4536 27.313C31.9783 17.3646 43.3402 13.1862 49.8311 17.9801C56.3221 22.774 55.4841 34.725 47.9594 44.6734Z" fill="#F2F2F2"/>
<path fill-rule="evenodd" clip-rule="evenodd" d="M44.3236 41.9906L27.3298 29.4397L28.2666 28.2012L45.2604 40.752L44.3236 41.9906Z" fill="black"/>
<path fill-rule="evenodd" clip-rule="evenodd" d="M34.3421 53.4168C38.6141 51.8463 43.1038 48.5178 46.7142 43.7462C50.3246 38.9746 52.2848 33.7787 52.5999 29.2868C52.9163 24.7758 51.58 21.1964 48.9037 19.2205C46.2275 17.2447 42.3738 16.9923 38.0836 18.5695C33.8117 20.1401 29.3219 23.4685 25.7116 28.2401C22.1012 33.0117 20.141 38.2076 19.8259 42.6995C19.5095 47.2105 20.8458 50.7899 23.522 52.7658C26.1983 54.7417 30.052 54.994 34.3421 53.4168ZM22.5835 54.0062C29.0767 58.8002 40.4426 54.6217 47.97 44.6734C55.4973 34.725 56.3355 22.774 49.8423 17.9801C43.349 13.1862 31.9831 17.3646 24.4558 27.313C16.9285 37.2613 16.0902 49.2123 22.5835 54.0062Z" fill="black"/>
</svg>
