<svg width="72" height="72" viewBox="0 0 72 72" fill="none" xmlns="http://www.w3.org/2000/svg">
<path d="M37.2322 16.8576C37.5738 16.0363 38.7372 16.0363 39.0788 16.8576L44.0671 28.8508C44.2111 29.1971 44.5367 29.4336 44.9105 29.4636L57.8581 30.5016C58.7448 30.5727 59.1043 31.6792 58.4288 32.2579L48.564 40.7081C48.2792 40.952 48.1549 41.3348 48.2419 41.6996L51.2557 54.3343C51.4621 55.1995 50.5209 55.8834 49.7618 55.4197L38.6767 48.6491C38.3567 48.4536 37.9542 48.4536 37.6342 48.6491L26.5492 55.4197C25.7901 55.8834 24.8489 55.1995 25.0552 54.3343L28.0691 41.6996C28.1561 41.3348 28.0317 40.952 27.7469 40.7081L17.8822 32.2579C17.2066 31.6792 17.5662 30.5727 18.4528 30.5016L31.4005 29.4636C31.7743 29.4336 32.0999 29.1971 32.2439 28.8508L37.2322 16.8576Z" fill="#F2F2F2"/>
<path fill-rule="evenodd" clip-rule="evenodd" d="M42.5575 28.0058L38.3569 17.9465C38.1696 17.498 37.5316 17.498 37.3443 17.9465L33.1437 28.0058C32.5909 29.3294 31.3412 30.2338 29.9064 30.3484L19.0032 31.219C18.517 31.2579 18.3199 31.8622 18.6903 32.1782L26.9974 39.2658C28.0905 40.1984 28.5679 41.6618 28.2339 43.0563L25.696 53.6536C25.5828 54.1261 26.0989 54.4996 26.5152 54.2464L35.8499 48.5675C37.0782 47.8202 38.623 47.8202 39.8513 48.5675L49.186 54.2464C49.6023 54.4996 50.1184 54.1261 50.0052 53.6536L47.4672 43.0563C47.1333 41.6618 47.6107 40.1984 48.7038 39.2658L57.0109 32.1782C57.3813 31.8622 57.1842 31.2579 56.698 31.219L45.7947 30.3484C44.36 30.2338 43.1102 29.3294 42.5575 28.0058ZM39.8757 17.3173C39.1265 15.5231 36.5747 15.5231 35.8254 17.3173L31.6248 27.3766C31.309 28.1329 30.5948 28.6498 29.775 28.7152L18.8717 29.5858C16.927 29.7411 16.1385 32.1584 17.6201 33.4225L25.9273 40.5101C26.5519 41.0431 26.8247 41.8793 26.6338 42.6761L24.0959 53.2734C23.6432 55.1636 25.7077 56.6575 27.3726 55.6446L36.7073 49.9657C37.4092 49.5387 38.292 49.5387 38.9939 49.9657L48.3286 55.6446C49.9935 56.6575 52.058 55.1636 51.6053 53.2734L49.0673 42.6761C48.8765 41.8793 49.1493 41.0431 49.7739 40.5101L58.081 33.4225C59.5627 32.1584 58.7742 29.7411 56.8294 29.5858L45.9262 28.7152C45.1064 28.6498 44.3922 28.1329 44.0763 27.3766L39.8757 17.3173Z" fill="black"/>
</svg>
