<svg width="72" height="72" viewBox="0 0 72 72" fill="none" xmlns="http://www.w3.org/2000/svg">
<path d="M55.5675 29.2779C55.5584 30.5294 55.3697 31.7708 55.0089 32.9528C53.7388 37.5651 50.9942 42.4703 46.4002 47.2434C42.4172 51.382 38.1423 54.2691 36.0043 54.2691C33.7024 54.2691 29.4319 51.3534 25.3789 47.0128C20.8821 42.1986 17.8096 37.0179 16.9505 32.8119C16.6088 31.6727 16.4345 30.477 16.4346 29.2729C16.4346 25.0546 18.531 21.1703 21.8998 19.1271C24.0725 17.8169 26.5683 17.3771 28.9865 17.8783C31.4047 18.3795 33.6051 19.7925 35.2348 21.8908L36.0065 22.9005L36.764 21.8945C38.7314 19.2867 41.8389 17.7297 45.0612 17.7297C46.8121 17.7183 48.5386 18.1973 50.0892 19.1247C53.4699 21.1678 55.5675 25.0571 55.5675 29.2779Z" fill="#F2F2F2"/>
<path d="M36.0049 56C33.2953 56 28.7395 53.0145 24.3969 48.396C19.7668 43.4645 16.4702 37.8911 15.5772 33.4858V33.4559L15.5652 33.4135C15.1873 32.1278 14.9965 30.7804 15 29.4245C14.9957 24.5055 17.4277 19.9892 21.3429 17.6207C23.1344 16.5485 25.1293 15.9942 27.1524 16.0064C30.3026 16.0064 33.3707 17.2929 35.5688 19.5367L36.006 19.9842L36.4433 19.5355C38.6293 17.2916 41.6898 16.0002 44.8378 16.0002C46.8625 15.9881 48.8591 16.5419 50.6527 17.6133C54.568 19.9817 57 24.5018 57 29.4182C56.9972 30.8349 56.792 32.2416 56.3923 33.583L56.3846 33.6129C55.4872 36.6047 53.1525 42.5109 47.5922 48.4134C43.2496 53.0232 38.7004 56 36.0049 56ZM27.2486 17.9511C25.4749 17.9457 23.7274 18.439 22.1605 19.3871C18.8213 21.4028 16.7533 25.2485 16.7533 29.4207C16.7532 30.6119 16.9253 31.795 17.2626 32.9223C18.1065 37.0534 21.1232 42.1394 25.5369 46.8652C29.52 51.1309 33.726 53.9968 36.0049 53.9968C38.1211 53.9968 42.3325 51.1571 46.2467 47.092C50.5095 42.663 53.3514 37.941 54.6981 33.0582C55.0533 31.8896 55.238 30.6625 55.2446 29.4257C55.2446 25.251 53.1678 21.4028 49.8362 19.3846C48.3039 18.4679 46.5977 17.9941 44.8673 18.0047C41.6833 18.0047 38.6184 19.5442 36.6695 22.1183L36.0137 22.9909L35.3415 22.1121C34.3329 20.7975 33.0882 19.7456 31.6919 19.0277C30.2956 18.3097 28.7803 17.9426 27.2486 17.9511Z" fill="black"/>
<path d="M51.7347 32.3709C51.6875 32.373 51.6403 32.3666 51.5948 32.3522C51.5405 32.3317 51.4903 32.2992 51.4471 32.2564C51.4039 32.2136 51.3687 32.1614 51.3434 32.1029C51.3173 32.0436 51.3018 31.979 51.2979 31.9129C51.294 31.8468 51.3016 31.7804 51.3204 31.7177C51.5459 30.9787 51.6637 30.2026 51.6691 29.4203C51.6691 26.6666 50.3017 24.1336 48.1004 22.8135C47.0715 22.1819 45.9208 21.8524 44.7524 21.8548C44.6909 21.8635 44.6285 21.8571 44.5694 21.8362C44.5103 21.8153 44.4557 21.7803 44.4093 21.7335C44.3629 21.6867 44.3258 21.6292 44.3003 21.5648C44.2749 21.5004 44.2617 21.4306 44.2617 21.36C44.2617 21.2893 44.2749 21.2195 44.3003 21.1551C44.3258 21.0907 44.3629 21.0332 44.4093 20.9864C44.4557 20.9397 44.5103 20.9046 44.5694 20.8837C44.6285 20.8628 44.6909 20.8564 44.7524 20.8651C46.0638 20.8592 47.356 21.2255 48.5124 21.9309C50.9958 23.4268 52.5381 26.3013 52.5381 29.4227C52.5353 30.3135 52.405 31.1977 52.1522 32.0405C52.123 32.1394 52.0665 32.2249 51.9914 32.2844C51.9162 32.3439 51.8262 32.3742 51.7347 32.3709Z" fill="black"/>
</svg>
