<svg width="72" height="72" viewBox="0 0 72 72" fill="none" xmlns="http://www.w3.org/2000/svg">
<g clip-path="url(#clip0_1006_12805)">
<path d="M48.1915 37.1267C48.1915 36.4966 48.0399 35.8756 47.7491 35.3146C47.4583 34.7535 47.0367 34.2686 46.5188 33.8996C46.001 33.5307 45.4018 33.2882 44.7705 33.1921C44.1391 33.096 43.4937 33.1491 42.8872 33.347C42.7815 33.2192 42.6749 33.0943 42.5652 32.9724C43.6424 31.8233 44.3905 30.4123 44.7327 28.8841C45.0749 27.3559 44.999 25.7654 44.5128 24.2757C45.0878 24.0065 45.5901 23.6071 45.9788 23.1099C46.3674 22.6128 46.6314 22.032 46.749 21.4151C46.8667 20.7981 46.8348 20.1625 46.6559 19.56C46.477 18.9575 46.1562 18.4053 45.7197 17.9485C45.2832 17.4916 44.7433 17.143 44.1441 16.9312C43.5449 16.7194 42.9035 16.6503 42.2721 16.7296C41.6407 16.809 41.0373 17.0344 40.5111 17.3876C39.9849 17.7408 39.5508 18.2117 39.2443 18.7619C37.2892 18.0145 35.1306 17.9654 33.1427 18.6233C32.8277 18.1072 32.398 17.6683 31.8861 17.3397C31.3741 17.0111 30.7933 16.8014 30.1872 16.7263C29.5812 16.6513 28.9658 16.7128 28.3874 16.9064C27.809 17.1 27.2827 17.4205 26.8481 17.8437C26.4134 18.267 26.0819 18.7821 25.8784 19.3501C25.6749 19.9181 25.6047 20.5242 25.6732 21.1229C25.7417 21.7215 25.947 22.297 26.2737 22.806C26.6004 23.315 27.04 23.7442 27.5593 24.0614C27.0224 25.5745 26.9135 27.2032 27.2441 28.7728C27.5747 30.3424 28.3325 31.7935 29.436 32.9705C29.3254 33.0924 29.2187 33.2172 29.1131 33.345C28.1208 33.0317 27.0441 33.1089 26.1083 33.5605C25.1724 34.0121 24.4498 34.8031 24.0917 35.7681C23.7335 36.7331 23.7676 37.7973 24.1867 38.7381C24.6058 39.6789 25.3775 40.4234 26.3403 40.816C26.3297 41.0447 26.324 41.274 26.3234 41.5041C26.3184 43.1695 26.6203 44.8219 27.2144 46.3808C26.144 47.2783 25.4403 48.7941 25.4403 50.5144C25.4403 53.2669 27.2473 55.5052 29.4769 55.5052C31.1005 55.5052 32.4988 54.3197 33.1397 52.6112C34.9828 53.2993 37.0174 53.2993 38.8606 52.6112C39.5015 54.3197 40.8998 55.5052 42.5234 55.5052C44.753 55.5052 46.5599 53.2708 46.5599 50.5144C46.5599 48.7941 45.8563 47.2783 44.7858 46.3808C45.3799 44.8219 45.6818 43.1695 45.6769 41.5041C45.6769 41.2721 45.6709 41.0411 45.6599 40.816C46.4066 40.5199 47.0466 40.0105 47.4977 39.3531C47.9488 38.6958 48.1904 37.9204 48.1915 37.1267Z" fill="#F2F2F2"/>
<path d="M42.523 56.0002C41.7393 56.0005 40.968 55.8072 40.2796 55.4378C39.5912 55.0685 39.0076 54.5349 38.5821 53.8857L38.3589 53.5515L37.9602 53.6321C36.667 53.8969 35.3325 53.8969 34.0393 53.6321L33.6406 53.5515L33.4183 53.8877C32.8668 54.7273 32.0547 55.3685 31.1033 55.7154C30.1519 56.0623 29.1123 56.0963 28.1396 55.8124C27.167 55.5285 26.3136 54.9419 25.7068 54.1402C25.1001 53.3385 24.7725 52.3647 24.7732 51.3643V49.5949C24.7738 48.4795 25.1822 47.4018 25.9233 46.5593L26.1326 46.3175L26.0439 46.0118C25.739 44.9527 25.585 43.8569 25.5864 42.756C25.5864 42.3825 25.6044 42.0001 25.6413 41.6206L25.6761 41.2569L25.3622 41.0603C24.5421 40.559 23.8984 39.8208 23.5184 38.9461C23.1385 38.0714 23.0407 37.1025 23.2384 36.1711C23.4361 35.2397 23.9196 34.3909 24.6234 33.7399C25.3272 33.089 26.2171 32.6675 27.1722 32.5326L28.0363 32.4166L27.6127 31.6666C26.8208 30.2622 26.405 28.6819 26.4047 27.0749C26.4055 26.3083 26.5019 25.5446 26.6918 24.8012L26.7835 24.4394L26.4914 24.2006C25.9902 23.79 25.5812 23.2808 25.2908 22.7056C25.0004 22.1303 24.8348 21.5016 24.8047 20.8596C24.7746 20.2177 24.8806 19.5766 25.1159 18.9773C25.3512 18.3781 25.7107 17.8338 26.1714 17.3794C26.6321 16.9249 27.1839 16.5703 27.7914 16.3381C28.399 16.1059 29.049 16.0012 29.6999 16.0308C30.3507 16.0604 30.9882 16.2236 31.5715 16.51C32.1548 16.7964 32.6711 17.1996 33.0874 17.694L33.3276 17.983L33.6954 17.8915C35.2083 17.5154 36.7922 17.5154 38.305 17.8915L38.6718 17.983L38.912 17.694C39.3283 17.1996 39.8445 16.7962 40.4278 16.5098C41.0111 16.2233 41.6485 16.06 42.2994 16.0303C42.9502 16.0006 43.6002 16.1052 44.2078 16.3373C44.8154 16.5694 45.3672 16.924 45.828 17.3784C46.2887 17.8327 46.6483 18.3769 46.8838 18.9762C47.1192 19.5754 47.2253 20.2165 47.1953 20.8584C47.1653 21.5004 46.9998 22.1291 46.7094 22.7044C46.4191 23.2797 46.0102 23.789 45.509 24.1996L45.216 24.4375L45.3087 24.7992C45.8987 27.1203 45.5689 29.576 44.3868 31.6656L43.9622 32.4166L44.8243 32.5385C45.7797 32.6731 46.6699 33.0946 47.3739 33.7456C48.078 34.3966 48.5617 35.2456 48.7594 36.1773C48.9571 37.109 48.8592 38.0781 48.479 38.9529C48.0988 39.8278 47.4547 40.566 46.6343 41.0672L46.3193 41.2638L46.3552 41.6275C46.3921 42.007 46.41 42.3884 46.41 42.7629C46.4115 43.8638 46.2575 44.9596 45.9526 46.0187L45.8639 46.3254L46.0761 46.5662C46.817 47.408 47.2253 48.4851 47.2263 49.5998V51.3692C47.2229 52.5978 46.726 53.7749 45.8445 54.6429C44.9629 55.5109 43.7686 55.9989 42.523 56.0002ZM42.523 46.1877C41.6078 46.189 40.7305 46.5482 40.0835 47.1866C39.4365 47.8249 39.0725 48.6903 39.0715 49.5929V51.3623C39.0869 52.2553 39.4573 53.1066 40.103 53.7327C40.7487 54.3588 41.618 54.7097 42.5235 54.7097C43.429 54.7097 44.2982 54.3588 44.9439 53.7327C45.5896 53.1066 45.9601 52.2553 45.9755 51.3623V49.5929C45.9744 48.6901 45.6103 47.8246 44.9631 47.1862C44.3159 46.5479 43.4383 46.1888 42.523 46.1877ZM29.4765 46.1877C28.5611 46.1888 27.6836 46.5479 27.0364 47.1862C26.3891 47.8246 26.025 48.6901 26.024 49.5929V51.3623C26.0394 52.2553 26.4098 53.1066 27.0555 53.7327C27.7012 54.3588 28.5705 54.7097 29.476 54.7097C30.3815 54.7097 31.2507 54.3588 31.8964 53.7327C32.5421 53.1066 32.9126 52.2553 32.928 51.3623V49.5929C32.9269 48.6903 32.563 47.8249 31.9159 47.1866C31.2689 46.5482 30.3916 46.189 29.4765 46.1877ZM29.4765 44.955C30.7232 44.9563 31.9185 45.4454 32.8001 46.3149C33.6816 47.1844 34.1775 48.3633 34.1788 49.5929V51.3623C34.1785 51.5239 34.1699 51.6853 34.1529 51.846L34.0951 52.4004L34.6532 52.4889C35.5445 52.6303 36.453 52.6303 37.3443 52.4889L37.9024 52.4004L37.8446 51.846C37.8275 51.6853 37.8189 51.5239 37.8187 51.3623V49.5929C37.8187 48.8445 38.0023 48.1073 38.3538 47.4441C38.7054 46.7809 39.2144 46.2114 39.8375 45.7843C40.4606 45.3573 41.1792 45.0852 41.932 44.9915C42.6848 44.8977 43.4494 44.9851 44.1605 45.246L44.8213 45.4898L44.9569 44.8066C45.0897 44.1309 45.1565 43.4443 45.1562 42.756C45.1562 42.6066 45.1562 42.4611 45.1462 42.3127L45.1203 41.7042L44.5044 41.7494C44.3688 41.7592 44.2562 41.7641 44.1506 41.7641C42.9038 41.7628 41.7085 41.2738 40.827 40.4043C39.9454 39.5348 39.4496 38.3559 39.4482 37.1263C39.4482 37.0181 39.4532 36.9002 39.4632 36.7645L39.53 35.9122L38.7027 36.1521C36.9379 36.6626 35.0616 36.6626 33.2967 36.1521L32.4655 35.9113L32.5323 36.7635C32.5423 36.8992 32.5472 37.0181 32.5472 37.1253C32.5459 38.3549 32.0501 39.5338 31.1685 40.4033C30.2869 41.2728 29.0916 41.7619 27.8449 41.7632C27.7393 41.7632 27.6266 41.7632 27.4911 41.7484L26.8751 41.7032L26.8492 42.3117C26.8423 42.4562 26.8393 42.6066 26.8393 42.755C26.839 43.4433 26.9058 44.1299 27.0386 44.8056L27.1761 45.4908L27.8369 45.247C28.3613 45.0534 28.9166 44.9545 29.4765 44.955ZM44.1546 33.7211C43.4717 33.7209 42.8041 33.9204 42.2362 34.2945C41.6683 34.6685 41.2256 35.2003 40.9642 35.8225C40.7027 36.4447 40.6342 37.1294 40.7673 37.79C40.9004 38.4506 41.2291 39.0574 41.7119 39.5337C42.1947 40.0101 42.8099 40.3345 43.4796 40.4659C44.1494 40.5974 44.8436 40.53 45.4745 40.2723C46.1055 40.0146 46.6447 39.5782 47.0241 39.0182C47.4035 38.4582 47.606 37.7998 47.606 37.1263C47.605 36.2236 47.241 35.3583 46.594 34.7199C45.947 34.0816 45.0697 33.7224 44.1546 33.7211ZM27.8449 33.7211C27.1621 33.7211 26.4946 33.9208 25.9268 34.295C25.3591 34.6691 24.9165 35.2009 24.6552 35.8232C24.3939 36.4454 24.3255 37.13 24.4588 37.7906C24.592 38.4511 24.9208 39.0579 25.4036 39.5341C25.8865 40.0103 26.5017 40.3346 27.1714 40.466C27.8411 40.5974 28.5353 40.53 29.1661 40.2722C29.797 40.0145 30.3362 39.5781 30.7156 39.0181C31.0949 38.4581 31.2974 37.7997 31.2974 37.1263C31.2966 36.2234 30.9326 35.3577 30.2853 34.7193C29.638 34.0809 28.7603 33.7219 27.8449 33.7211ZM29.4765 17.2339C28.7089 17.2307 27.9624 17.4808 27.3557 17.9445C26.749 18.4082 26.317 19.0588 26.1285 19.7926C25.9401 20.5265 26.006 21.3014 26.3158 21.994C26.6256 22.6867 27.1614 23.2572 27.8379 23.6147C27.9671 23.6847 28.0669 23.7975 28.1196 23.9332C28.1723 24.0689 28.1746 24.2187 28.126 24.3559C27.6841 25.5969 27.5502 26.9243 27.7355 28.2268C27.9208 29.5293 28.4199 30.7691 29.191 31.8423C29.9621 32.9154 30.9827 33.7907 32.1673 34.3947C33.352 34.9987 34.6662 35.3139 35.9997 35.3139C37.3333 35.3139 38.6475 34.9987 39.8321 34.3947C41.0168 33.7907 42.0374 32.9154 42.8085 31.8423C43.5796 30.7691 44.0787 29.5293 44.264 28.2268C44.4493 26.9243 44.3154 25.5969 43.8735 24.3559C43.824 24.2178 43.8262 24.0669 43.8795 23.9303C43.9329 23.7937 44.034 23.6804 44.1645 23.6107C44.6372 23.3606 45.0439 23.0048 45.3522 22.5719C45.6605 22.1389 45.8619 21.6409 45.9402 21.1175C46.0185 20.5941 45.9715 20.0599 45.8031 19.5576C45.6346 19.0553 45.3494 18.5988 44.9701 18.2247C44.5909 17.8505 44.1281 17.5691 43.6189 17.4029C43.1096 17.2366 42.568 17.1902 42.0373 17.2673C41.5067 17.3444 41.0016 17.5429 40.5626 17.8469C40.1236 18.1509 39.7628 18.552 39.509 19.0181C39.4383 19.1468 39.3234 19.2464 39.185 19.2992C39.0466 19.3519 38.8936 19.3544 38.7536 19.3061C36.9738 18.6848 35.0317 18.6848 33.2519 19.3061C33.1118 19.3544 32.9589 19.3519 32.8204 19.2992C32.682 19.2464 32.5672 19.1468 32.4964 19.0181C32.2023 18.4803 31.7666 18.0306 31.2351 17.7166C30.7036 17.4026 30.096 17.2358 29.4765 17.2339Z" fill="black"/>
<path d="M32.3301 25.3746C32.1867 25.3746 32.0467 25.3327 31.9275 25.2542C31.8083 25.1757 31.7155 25.064 31.6606 24.9335C31.6058 24.8029 31.5914 24.6592 31.6194 24.5205C31.6474 24.3819 31.7164 24.2546 31.8177 24.1546C31.919 24.0547 32.0481 23.9866 32.1887 23.959C32.3293 23.9315 32.4749 23.9456 32.6073 23.9997C32.7397 24.0538 32.8529 24.1454 32.9325 24.2629C33.0121 24.3805 33.0546 24.5186 33.0546 24.66C33.0544 24.8494 32.978 25.0311 32.8421 25.165C32.7063 25.299 32.5221 25.3744 32.3301 25.3746Z" fill="black"/>
<path d="M39.6699 25.3746C39.5266 25.3746 39.3865 25.3327 39.2673 25.2542C39.1482 25.1757 39.0553 25.064 39.0005 24.9335C38.9456 24.8029 38.9313 24.6592 38.9592 24.5205C38.9872 24.3819 39.0562 24.2546 39.1575 24.1546C39.2589 24.0547 39.388 23.9866 39.5285 23.959C39.6691 23.9315 39.8148 23.9456 39.9472 23.9997C40.0796 24.0538 40.1927 24.1454 40.2724 24.2629C40.352 24.3805 40.3945 24.5186 40.3945 24.66C40.3942 24.8494 40.3178 25.0311 40.182 25.165C40.0461 25.299 39.862 25.3744 39.6699 25.3746Z" fill="black"/>
<path d="M35.9997 31.8094C35.8076 31.8092 35.6234 31.7338 35.4876 31.5998C35.3518 31.4659 35.2754 31.2842 35.2751 31.0948V29.3961H34.3691C34.1769 29.3961 33.9926 29.3208 33.8568 29.1868C33.7209 29.0528 33.6445 28.871 33.6445 28.6815C33.6445 28.4919 33.7209 28.3101 33.8568 28.1761C33.9926 28.0421 34.1769 27.9668 34.3691 27.9668H37.6302C37.8224 27.9668 38.0067 28.0421 38.1426 28.1761C38.2785 28.3101 38.3548 28.4919 38.3548 28.6815C38.3548 28.871 38.2785 29.0528 38.1426 29.1868C38.0067 29.3208 37.8224 29.3961 37.6302 29.3961H36.7243V31.0948C36.724 31.2842 36.6476 31.4659 36.5117 31.5998C36.3759 31.7338 36.1918 31.8092 35.9997 31.8094Z" fill="black"/>
</g>
<defs>
<clipPath id="clip0_1006_12805">
<rect width="25.7143" height="40" fill="white" transform="translate(23.1426 16)"/>
</clipPath>
</defs>
</svg>
