<svg width="72" height="72" viewBox="0 0 72 72" fill="none" xmlns="http://www.w3.org/2000/svg">
<g clip-path="url(#clip0_1006_12820)">
<path d="M34.9998 14.9072C28.0167 17.5281 23.3455 21.0565 23.9116 28.8428C24.3437 34.8775 27.2216 42.4136 30.5317 53.1473H39.468C42.778 42.4136 45.6516 34.8818 46.088 28.8428C46.6541 21.0565 41.9829 17.5281 34.9998 14.9072Z" fill="#F2F2F2"/>
<path d="M34.9998 14.9072C28.0167 17.5281 23.3455 21.0565 23.9116 28.8428C24.3437 34.8775 27.2216 42.4136 30.5317 53.1473H39.468C42.778 42.4136 45.6516 34.8818 46.088 28.8428C46.6541 21.0565 41.9829 17.5281 34.9998 14.9072Z" stroke="#231F20" stroke-width="1.5" stroke-miterlimit="10"/>
</g>
<defs>
<clipPath id="clip0_1006_12820">
<rect width="24" height="40" fill="white" transform="translate(23 14)"/>
</clipPath>
</defs>
</svg>
