<svg width="72" height="72" viewBox="0 0 72 72" fill="none" xmlns="http://www.w3.org/2000/svg">
<g clip-path="url(#clip0_1006_12687)">
<path d="M50.804 51.6935C49.9667 52.5305 48.9726 53.1944 47.8783 53.6474C46.784 54.1004 45.611 54.3336 44.4265 54.3336C43.2419 54.3336 42.069 54.1004 40.9747 53.6474C39.8804 53.1944 38.8862 52.5305 38.049 51.6935L27.8799 41.4887L40.5627 28.6816L50.804 38.957C51.6415 39.7932 52.3059 40.786 52.7592 41.8786C53.2124 42.9713 53.4458 44.1425 53.4458 45.3253C53.4458 46.508 53.2124 47.6792 52.7592 48.7719C52.3059 49.8646 51.6415 50.8574 50.804 51.6935Z" fill="#F2F2F2"/>
<path d="M40.6305 28.7429L27.874 41.4839L16.9972 30.6203C13.4752 27.1026 14.3813 22.3108 17.8987 18.7917C18.0069 18.6836 18.1211 18.5786 18.2353 18.475L18.4592 18.2799C20.1857 16.8203 22.3985 16.0623 24.6585 16.1562C26.9185 16.2502 29.0606 17.1893 30.6597 18.7872L40.6305 28.7429Z" fill="#F2F2F2"/>
<path d="M44.4289 55.2451C43.1245 55.2487 41.8323 54.9939 40.6271 54.4955C39.4219 53.997 38.3276 53.2648 37.4076 52.3412L19.4839 34.3852L17.2632 32.1672C16.0058 30.9105 15.1093 29.3397 14.6674 27.6188C14.2255 25.8979 14.2543 24.09 14.751 22.384C14.8053 22.1955 15.2177 20.7773 16.2334 19.355C16.6804 19.021 17.6977 19.5978 17.9495 20.0962C17.0353 21.4193 16.7799 21.9172 16.4954 22.8973C16.1956 23.93 16.0684 25.7657 16.4297 27.1703C16.7909 28.5749 17.523 29.8568 18.5494 30.8826L27.865 40.187L39.3338 28.732L30.0182 19.4276C28.4968 17.9096 26.4342 17.0569 24.2837 17.0569C22.1333 17.0569 20.0707 17.9096 18.5494 19.4276C18.1913 19.785 17.8674 20.1748 17.5817 20.5922C17.453 20.7809 17.258 20.9145 17.0353 20.9662C16.8126 21.0179 16.5785 20.984 16.3797 20.8713H16.3692C16.2614 20.808 16.1678 20.7232 16.0943 20.6222C16.0207 20.5212 15.9688 20.4061 15.9418 20.2842C15.9147 20.1623 15.9131 20.0361 15.937 19.9135C15.9609 19.7909 16.0098 19.6746 16.0807 19.5717C16.43 19.062 16.8258 18.5857 17.2632 18.149C18.1829 17.2254 19.2769 16.4932 20.4818 15.9947C21.6868 15.4962 22.9788 15.2415 24.283 15.2452H24.3807C27.0148 15.2778 29.5295 16.3479 31.378 18.2226L47.0538 33.923C47.2241 34.0935 47.3198 34.3245 47.3198 34.5653C47.3198 34.8061 47.2241 35.0371 47.0538 35.2076C46.9699 35.2929 46.8699 35.3607 46.7594 35.4069C46.649 35.4532 46.5305 35.477 46.4108 35.477C46.291 35.477 46.1725 35.4532 46.0621 35.4069C45.9517 35.3607 45.8516 35.2929 45.7677 35.2076L40.6275 30.0332L29.1572 41.4836L38.6923 51.0536C39.4438 51.808 40.3376 52.406 41.3221 52.8133C42.3065 53.2205 43.3619 53.4289 44.4274 53.4262H44.6603C46.243 53.379 47.7772 52.8702 49.0739 51.9627C50.3706 51.0552 51.3732 49.7886 51.9579 48.3189C52.5427 46.8493 52.6842 45.2408 52.3649 43.6919C52.0456 42.1429 51.2795 40.7211 50.1611 39.6017L45.4733 34.9127C45.3027 34.7424 45.2069 34.5113 45.2069 34.2704C45.2069 34.0295 45.3027 33.7985 45.4733 33.6281C45.6438 33.4578 45.8752 33.3621 46.1164 33.3621C46.3576 33.3621 46.5889 33.4578 46.7594 33.6281L51.4472 38.3156C52.8359 39.7023 53.7817 41.4691 54.165 43.3926C54.5483 45.3162 54.3519 47.3101 53.6007 49.1221C52.8494 50.9342 51.5771 52.4831 49.9446 53.573C48.312 54.6629 46.3926 55.2447 44.4289 55.2451Z" fill="black"/>
</g>
<defs>
<clipPath id="clip0_1006_12687">
<rect width="72" height="72" fill="white"/>
</clipPath>
</defs>
</svg>
