<svg width="72" height="72" viewBox="0 0 72 72" fill="none" xmlns="http://www.w3.org/2000/svg">
<path d="M17.4038 36.7778C17.4038 36.7778 22.7268 36.2547 28.907 42.0141C34.3249 47.064 34.8938 53.3749 34.8938 53.3749C34.8938 53.3749 53.9955 35.5187 54.3399 33.8297C55.4467 28.4089 41.0856 17.7556 41.0856 17.7556L38.6998 17.0918L35.9909 17.7556L17.4038 36.7778Z" fill="#F2F2F2"/>
<path d="M33.7189 51.9184C31.5905 44.8219 26.4745 39.4715 18.8198 37.3736C19.2455 39.1634 20.0292 40.7383 20.9231 42.2542C21.2714 42.8419 21.2869 43.131 20.6368 43.5076C20.0195 43.8652 19.737 43.8367 19.3829 43.1995C18.1755 41.0656 17.2447 38.7914 16.6121 36.4302C16.4728 35.8995 16.5927 35.559 16.9836 35.1767C22.9239 29.3641 28.8557 23.5465 34.7793 17.7237C37.1321 15.4261 40.1352 15.4261 42.4842 17.7199C46.2573 21.3972 50.0189 25.0915 53.7688 28.803C55.9785 30.9809 56.0153 33.9918 53.8017 36.1829C47.875 42.0507 41.9115 47.8823 35.9789 53.7463C35.5319 54.1856 35.1275 54.2769 34.5238 54.1267C32.0645 53.5275 29.7755 52.5366 27.558 51.3383C27.0317 51.053 26.9369 50.7677 27.3026 50.3036C27.5909 49.9384 27.6896 49.3259 28.4326 49.7767C29.7807 50.5884 31.2178 51.2475 32.7166 51.7415C33.0185 51.8404 33.2952 52.0573 33.7189 51.9184ZM39.9262 47.2052C40.058 47.144 40.1837 47.0708 40.3016 46.9864C44.4075 42.9579 48.5309 38.9466 52.604 34.8838C54.0823 33.4098 53.9758 31.4849 52.4472 29.9766C48.7863 26.3627 45.1177 22.7546 41.4413 19.1521C39.5373 17.2901 37.7223 17.2882 35.8203 19.1521C31.9813 22.9017 28.1527 26.6633 24.3344 30.4369C24.1138 30.6537 23.8197 30.8287 23.7423 31.2509C31.9271 33.773 37.345 39.0664 39.9262 47.2052ZM22.2524 32.6489C22.1131 32.6014 21.9099 32.8144 21.701 33.0293C21.1089 33.6063 20.5187 34.187 19.9305 34.7716C19.1933 35.5058 19.1952 35.5039 20.1569 35.8482C24.8008 37.5105 28.8158 40.0155 31.7491 44.0269C33.2598 46.1231 34.4514 48.4247 35.2862 50.859C35.5087 51.4943 35.7196 51.5361 36.1705 51.0625C36.7664 50.4405 37.3721 49.8224 38.0164 49.2518C38.444 48.8714 38.4847 48.4909 38.326 47.9888C36.4723 42.024 33.0088 37.3374 27.2233 34.5186C25.6341 33.7337 23.9688 33.1073 22.2524 32.6489Z" fill="black"/>
<path d="M24.4778 45.4343C24.6171 46.159 24.383 46.4481 23.6303 46.4252C22.9995 46.4043 22.7208 46.2731 22.7267 45.5845C22.7325 44.896 22.8621 44.5993 23.6225 44.6525C24.2108 44.6925 24.6829 44.7172 24.4778 45.4343Z" fill="black"/>
<path d="M21.8364 55.9564C21.0624 56.1371 20.9424 55.7472 20.9212 55.0776C20.896 54.3035 21.2559 54.2198 21.906 54.2065C22.6084 54.1932 22.7594 54.469 22.7748 55.1005C22.7922 55.8118 22.5717 56.1181 21.8364 55.9564Z" fill="black"/>
<path d="M18.2608 53.3376C17.5333 53.4992 17.4327 53.115 17.4056 52.495C17.3746 51.7589 17.6571 51.6067 18.3557 51.5877C19.1741 51.5668 19.1935 51.9681 19.2186 52.5786C19.2496 53.3223 18.8781 53.4384 18.2608 53.3376Z" fill="black"/>
<path d="M20.0388 48.9786C19.3558 49.1212 19.172 48.8188 19.1584 48.1664C19.1429 47.455 19.3848 47.2648 20.0911 47.2496C20.8805 47.2325 20.9463 47.5844 20.9637 48.2159C20.9908 48.9329 20.6696 49.0927 20.0388 48.9786Z" fill="black"/>
<path d="M23.5641 49.9127C24.3652 49.7377 24.518 50.1143 24.5316 50.7838C24.5451 51.4534 24.3168 51.6302 23.655 51.6436C22.9275 51.6569 22.7108 51.4248 22.7398 50.7287C22.7476 50.1124 22.8637 49.7225 23.5641 49.9127Z" fill="black"/>
</svg>
