<svg width="72" height="72" viewBox="0 0 72 72" fill="none" xmlns="http://www.w3.org/2000/svg">
<g clip-path="url(#clip0_1006_12704)">
<path d="M27.3386 43.1622C27.6676 43.1622 27.9344 42.8791 27.9344 42.5298C27.9344 42.1806 27.6676 41.8975 27.3386 41.8975C27.0095 41.8975 26.7427 42.1806 26.7427 42.5298C26.7427 42.8791 27.0095 43.1622 27.3386 43.1622Z" fill="black"/>
<path d="M26.8625 51.1085C27.1916 51.1085 27.4584 50.8253 27.4584 50.4761C27.4584 50.1269 27.1916 49.8438 26.8625 49.8438C26.5334 49.8438 26.2666 50.1269 26.2666 50.4761C26.2666 50.8253 26.5334 51.1085 26.8625 51.1085Z" fill="black"/>
<path d="M20.9434 36.4167L31.2453 25.5833L39.5662 17.25C44.8492 17.25 55.4945 17.3333 55.8115 17.6667C58.3473 22 54.2266 27.25 51.8492 29.3333L36.3964 45.5833L29.6605 52.6667C25.6983 55.5833 21.736 56 18.1698 52.6667C12.1472 46 17.5095 39.0556 20.9434 36.4167Z" fill="#F2F2F2"/>
<path d="M30.8444 46.8829C31.1735 46.8829 31.4403 46.5998 31.4403 46.2505C31.4403 45.9013 31.1735 45.6182 30.8444 45.6182C30.5153 45.6182 30.2485 45.9013 30.2485 46.2505C30.2485 46.5998 30.5153 46.8829 30.8444 46.8829Z" fill="black"/>
<path d="M56.5228 17.5809C56.3532 17.045 55.9575 16.6404 55.4702 16.4678C55.4665 16.4665 55.4629 16.4649 55.4593 16.4636C55.436 16.4555 55.4122 16.4492 55.3885 16.4422C55.2433 16.3993 55.0927 16.376 54.9387 16.376H40.1371C39.5438 16.376 38.9861 16.6211 38.5665 17.0663L17.6396 39.2744C14.1201 43.0095 14.1201 49.0868 17.6396 52.8219C19.3994 54.6894 21.7111 55.6232 24.0225 55.6232C26.3341 55.6232 28.6456 54.6894 30.4055 52.8219L34.0794 48.9233C34.3196 48.6683 34.3196 48.2549 34.0793 48C33.8391 47.7449 33.4495 47.745 33.2093 48L29.5354 51.8986C26.4956 55.1246 21.5495 55.1246 18.5096 51.8986C15.4697 48.6726 15.4697 43.4237 18.5096 40.1976L39.2411 18.197C39.582 18.2455 39.9055 18.4122 40.1508 18.6726L41.2222 19.8096C41.0451 19.7851 40.8595 19.8444 40.7234 19.9889C40.4907 20.2358 40.4907 20.6362 40.7234 20.8831C40.9561 21.1301 41.3334 21.1301 41.566 20.8831C41.7033 20.7374 41.759 20.5384 41.7343 20.349C43.4743 22.1125 45.7203 22.9943 47.9665 22.9943C50.2781 22.9943 52.5896 22.0606 54.3495 20.193C54.7961 19.719 55.1914 19.1997 55.5332 18.6417C56.1959 21.4565 55.437 24.4112 53.4794 26.4886L32.6741 48.568C32.4338 48.823 32.4338 49.2363 32.6741 49.4912C32.7943 49.6187 32.9517 49.6825 33.1092 49.6825C33.2666 49.6825 33.4241 49.6187 33.5443 49.4912L54.3495 27.412C56.7898 24.8223 57.6227 21.0551 56.5228 17.5809ZM53.4794 19.2699C50.4396 22.4959 45.4935 22.4959 42.4536 19.2699L41.0209 17.7494C40.9991 17.7264 40.9772 17.7039 40.9549 17.6818H54.649C54.3223 18.2589 53.9309 18.7908 53.4794 19.2699Z" fill="black"/>
<path d="M36.2477 42.4042L44.5328 33.6118C45.8897 32.1719 45.8897 29.8289 44.5328 28.389L40.6629 24.2821C39.306 22.8423 37.0982 22.8421 35.7414 24.282L33.1488 27.0333C32.9084 27.2883 32.9084 27.7016 33.1487 27.9566C33.389 28.2115 33.7784 28.2115 34.0186 27.9567L36.6113 25.2053C37.4886 24.2745 38.9158 24.2746 39.7928 25.2053L43.6627 29.3122C44.5399 30.243 44.5399 31.7577 43.6627 32.6886L35.3776 41.481C34.9526 41.932 34.3878 42.1802 33.7868 42.1802C33.1859 42.1802 32.621 41.9319 32.1961 41.481L28.3262 37.3742C27.449 36.4433 27.449 34.9287 28.3262 33.9977L34.1563 27.8106C34.3965 27.5556 34.3965 27.1423 34.1563 26.8873C33.9159 26.6323 33.5265 26.6323 33.2863 26.8873L27.4561 33.0744C26.0993 34.5144 26.0993 36.8573 27.4561 38.2974L31.326 42.4042C32.0045 43.1242 32.8957 43.4842 33.7869 43.4842C34.678 43.4842 35.5692 43.1242 36.2477 42.4042Z" fill="black"/>
<path d="M44.6506 24.7891C44.9797 24.7891 45.2464 24.506 45.2464 24.1568C45.2464 23.8075 44.9797 23.5244 44.6506 23.5244C44.3215 23.5244 44.0547 23.8075 44.0547 24.1568C44.0547 24.506 44.3215 24.7891 44.6506 24.7891Z" fill="black"/>
<path d="M23.3561 47.3878C23.6852 47.3878 23.952 47.1046 23.952 46.7554C23.952 46.4062 23.6852 46.123 23.3561 46.123C23.027 46.123 22.7603 46.4062 22.7603 46.7554C22.7603 47.1046 23.027 47.3878 23.3561 47.3878Z" fill="black"/>
<path d="M23.8317 39.4415C24.1608 39.4415 24.4276 39.1584 24.4276 38.8091C24.4276 38.4599 24.1608 38.1768 23.8317 38.1768C23.5026 38.1768 23.2358 38.4599 23.2358 38.8091C23.2358 39.1584 23.5026 39.4415 23.8317 39.4415Z" fill="black"/>
<path d="M19.8498 43.6671C20.1789 43.6671 20.4457 43.3839 20.4457 43.0347C20.4457 42.6855 20.1789 42.4023 19.8498 42.4023C19.5207 42.4023 19.2539 42.6855 19.2539 43.0347C19.2539 43.3839 19.5207 43.6671 19.8498 43.6671Z" fill="black"/>
<path d="M52.1388 24.2842C52.4679 24.2842 52.7347 24.0011 52.7347 23.6519C52.7347 23.3026 52.4679 23.0195 52.1388 23.0195C51.8098 23.0195 51.543 23.3026 51.543 23.6519C51.543 24.0011 51.8098 24.2842 52.1388 24.2842Z" fill="black"/>
<path d="M48.1574 28.5098C48.4865 28.5098 48.7533 28.2267 48.7533 27.8775C48.7533 27.5282 48.4865 27.2451 48.1574 27.2451C47.8283 27.2451 47.5615 27.5282 47.5615 27.8775C47.5615 28.2267 47.8283 28.5098 48.1574 28.5098Z" fill="black"/>
</g>
<defs>
<clipPath id="clip0_1006_12704">
<rect width="42" height="40" fill="white" transform="translate(15 16)"/>
</clipPath>
</defs>
</svg>
