<svg width="72" height="72" viewBox="0 0 72 72" fill="none" xmlns="http://www.w3.org/2000/svg">
<path d="M34.4279 18.8996L37.2488 16L55.5845 34.8473L52.2935 37.7469L51.3532 36.7804L31.1369 54.6611L22.2042 53.6946L19.8534 55.6277L17.0326 52.7281L18.9132 50.3118L17.9729 41.1297L34.8981 20.3494L34.4279 18.8996Z" fill="#F2F2F2"/>
<path d="M30.7968 55.1315C30.7755 55.1315 30.754 55.1306 30.7325 55.1286L23.0565 54.4305C22.7751 54.4031 22.5233 54.3454 22.2608 54.1937L20.4037 55.7059C20.161 55.9027 19.8803 56.0013 19.6121 56.0013C19.3473 56.0012 19.0946 55.9052 18.902 55.7131L16.2886 53.1038C15.901 52.7171 15.9039 52.0865 16.2967 51.603L17.8097 49.751C17.6544 49.4852 17.5977 49.2329 17.5728 48.9516L16.874 41.2923C16.8568 41.1041 16.9157 40.9169 17.0377 40.7723L33.8714 20.82L33.5871 20.5361C33.3586 20.308 33.2328 20.004 33.2328 19.6802C33.2328 19.3563 33.3586 19.0524 33.5873 18.8242L35.9935 16.4244C36.221 16.1941 36.5248 16.0666 36.8488 16.0654H36.853C37.1767 16.0654 37.4812 16.1916 37.7109 16.421L55.6439 34.325C55.8746 34.5554 56.001 34.8612 56 35.1859C55.9989 35.5094 55.8713 35.8127 55.6441 36.0363L53.2365 38.4429C53.0001 38.6788 52.6899 38.7967 52.3795 38.7967C52.0692 38.7967 51.7588 38.6787 51.5226 38.4428L51.2379 38.1586L31.2531 54.9653C31.125 55.0731 30.9632 55.1315 30.7968 55.1315ZM17.5251 52.3376L19.6692 54.4784L21.1967 53.2346L18.771 50.8127L17.5251 52.3376ZM18.984 48.8252C18.9986 48.9902 19.0035 49.0459 19.218 49.2585L19.2201 49.2606L22.7513 52.786L22.7535 52.7883L22.7548 52.7896C22.964 52.9999 23.0171 53.0051 23.1893 53.0219L28.9117 53.5424L18.4625 43.11L18.984 48.8252ZM28.0439 45.2273C28.3205 44.951 28.7691 44.9509 29.0457 45.2272L34.3436 50.5166L50.2324 37.1545L44.6702 31.6013C44.3934 31.3251 44.3934 30.8772 44.6701 30.601C44.9467 30.3249 45.3953 30.3247 45.6719 30.6009L52.3795 37.2976L54.4973 35.1809L36.8539 17.5658L34.7337 19.6803L46.3597 31.2877C46.6364 31.5639 46.6364 32.0118 46.3596 32.288C46.083 32.5642 45.6344 32.5643 45.3578 32.2879L34.8768 21.824L21.4911 37.6897L29.3238 45.505C29.5989 45.7826 29.5967 46.2305 29.3185 46.5053C29.1804 46.6418 29.0003 46.7099 28.8203 46.7099C28.6377 46.7099 28.4553 46.6399 28.3167 46.5L20.5745 38.776L18.5403 41.187L30.8378 53.4649L33.2559 51.4312L28.044 46.2277C27.7673 45.9514 27.7673 45.5035 28.0439 45.2273Z" fill="black"/>
<path d="M33.8932 31.3884C35.3935 31.7073 36.9185 32.5808 38.1875 33.8477C39.4566 35.1147 40.3314 36.6373 40.651 38.1352C40.994 39.7435 40.6669 41.1444 39.7299 42.0798C39.0354 42.7731 38.0849 43.1319 36.9831 43.1319C36.5985 43.1319 36.1953 43.0881 35.7784 42.9996C34.2774 42.6809 32.7527 41.8083 31.4849 40.5425C30.2158 39.2756 29.3411 37.7525 29.0214 36.2536C28.6784 34.6445 29.0055 33.2433 29.9425 32.3078C30.8793 31.3724 32.2825 31.0459 33.8932 31.3884ZM30.4073 35.9592C30.6704 37.1938 31.4088 38.4662 32.4867 39.5421C33.8817 40.935 35.6043 41.7145 36.9797 41.7143C37.6836 41.7142 38.2968 41.51 38.7283 41.0794C39.3142 40.4943 39.5049 39.5534 39.2653 38.43C39.0022 37.1962 38.2636 35.9242 37.1858 34.8481C35.7898 33.4543 34.0662 32.6741 32.6906 32.6741C31.9875 32.6741 31.375 32.8781 30.9442 33.3083C30.3581 33.8934 30.1675 34.8348 30.4073 35.9592Z" fill="black"/>
</svg>
