<svg width="72" height="72" viewBox="0 0 72 72" fill="none" xmlns="http://www.w3.org/2000/svg">
<path d="M55.7037 23.04L49.2344 16.5683C49.1098 16.4439 48.941 16.374 48.7649 16.374C48.5888 16.374 48.4199 16.4439 48.2954 16.5683L46.772 18.0893C46.7102 18.151 46.6611 18.2242 46.6276 18.3048C46.5941 18.3855 46.5769 18.4719 46.5769 18.5592C46.5769 18.6465 46.5941 18.7329 46.6276 18.8135C46.6611 18.8942 46.7102 18.9674 46.772 19.029L48.5823 20.8394L44.5793 24.8463L40.6519 20.9177C40.5275 20.7937 40.3589 20.7241 40.1831 20.7241C40.0074 20.7241 39.8388 20.7937 39.7143 20.9177L37.3754 23.2576C37.2509 23.3821 37.181 23.5508 37.181 23.7268C37.181 23.9028 37.2509 24.0715 37.3754 24.196L38.9918 25.8179L24.0701 40.7507C24.0083 40.8123 23.9592 40.8856 23.9258 40.9662C23.8923 41.0468 23.875 41.1332 23.875 41.2205C23.875 41.3078 23.8923 41.3943 23.9258 41.4749C23.9592 41.5555 24.0083 41.6287 24.0701 41.6904L25.2084 42.8292L23.2241 44.7072L27.1435 48.6558L29.1755 46.7976L30.3217 47.9443C30.4462 48.0684 30.6148 48.138 30.7905 48.138C30.9663 48.138 31.1349 48.0684 31.2594 47.9443L42.4157 36.7862L46.189 33.0115L48.2037 35.0276C48.3283 35.152 48.4971 35.2219 48.6732 35.2219C48.8493 35.2219 49.0182 35.152 49.1427 35.0276L51.4763 32.689C51.5381 32.6274 51.5872 32.5541 51.6207 32.4735C51.6541 32.3929 51.6714 32.3065 51.6714 32.2192C51.6714 32.1319 51.6541 32.0455 51.6207 31.9648C51.5872 31.8842 51.5381 31.811 51.4763 31.7493L47.112 27.38L51.115 23.3758L53.24 25.4993C53.3646 25.6238 53.5334 25.6936 53.7095 25.6936C53.8856 25.6936 54.0545 25.6238 54.179 25.4993L55.7024 23.9743C55.8259 23.8502 55.8953 23.6824 55.8955 23.5074C55.8958 23.3324 55.8268 23.1644 55.7037 23.04Z" fill="#F2F2F2"/>
<path d="M16.7502 56C16.6045 56.0001 16.4621 55.9571 16.341 55.8763C16.2199 55.7955 16.1255 55.6806 16.0697 55.5462C16.014 55.4117 15.9994 55.2638 16.0278 55.1211C16.0563 54.9783 16.1265 54.8473 16.2295 54.7444L24.0655 46.9071L23.0562 45.8983C22.8037 45.6451 22.6619 45.3022 22.6619 44.9447C22.6619 44.5872 22.8037 44.2443 23.0562 43.9911L24.2156 42.8298L23.8105 42.425C23.5586 42.1711 23.4173 41.8281 23.4173 41.4707C23.4173 41.1132 23.5586 40.7702 23.8105 40.5164L38.2474 26.0746L37.0866 24.9133C36.8345 24.6599 36.6929 24.3171 36.6929 23.9597C36.6929 23.6023 36.8345 23.2595 37.0866 23.0061L39.2475 20.8453C39.3727 20.7199 39.5214 20.6204 39.6852 20.5525C39.8489 20.4846 40.0245 20.4497 40.2018 20.4497C40.379 20.4497 40.5546 20.4846 40.7183 20.5525C40.8821 20.6204 41.0308 20.7199 41.156 20.8453L44.4671 24.1634L47.624 21.0099L46.3265 19.7118C46.0739 19.4584 45.9321 19.1153 45.9321 18.7576C45.9321 18.3999 46.0739 18.0567 46.3265 17.8033L47.7343 16.3951C47.8596 16.2698 48.0084 16.1705 48.1721 16.1027C48.3358 16.0349 48.5113 16 48.6885 16C48.8658 16 49.0413 16.0349 49.205 16.1027C49.3687 16.1705 49.5175 16.2698 49.6428 16.3951L55.6194 22.3677C55.8719 22.6209 56.0137 22.9638 56.0137 23.3213C56.0137 23.6788 55.8719 24.0217 55.6194 24.2749L54.2116 25.6831C54.0864 25.8085 53.9377 25.908 53.7739 25.9759C53.6102 26.0438 53.4346 26.0787 53.2573 26.0787C53.0801 26.0787 52.9045 26.0438 52.7408 25.9759C52.577 25.908 52.4283 25.8085 52.3031 25.6831L51.0055 24.3851L47.8485 27.5386L51.1595 30.8567C51.412 31.1099 51.5538 31.4529 51.5538 31.8103C51.5538 32.1678 51.412 32.5107 51.1595 32.764L48.9987 34.926C48.7453 35.1783 48.4021 35.32 48.0444 35.32C47.6867 35.32 47.3435 35.1783 47.0901 34.926L45.9307 33.766L31.4938 48.2024C31.2404 48.4547 30.8973 48.5964 30.5395 48.5964C30.1818 48.5964 29.8387 48.4547 29.5853 48.2024L29.1868 47.8043L28.0274 48.9643C27.774 49.2166 27.4308 49.3582 27.0731 49.3582C26.7154 49.3582 26.3723 49.2166 26.1188 48.9643L25.1095 47.9556L17.2734 55.7863C17.2045 55.8545 17.1229 55.9085 17.0331 55.9452C16.9433 55.9818 16.8472 56.0005 16.7502 56ZM26.1454 46.9071L27.0671 47.8295L28.1403 46.7584L27.2185 45.8293L26.1454 46.9071ZM24.9381 41.4654L30.5402 47.069L32.5112 45.098L31.5071 44.1039C31.4387 44.0356 31.3845 43.9545 31.3475 43.8652C31.3105 43.7759 31.2914 43.6803 31.2914 43.5836C31.2914 43.487 31.3105 43.3913 31.3475 43.3021C31.3845 43.2128 31.4387 43.1317 31.5071 43.0634C31.5755 42.995 31.6566 42.9408 31.746 42.9039C31.8353 42.8669 31.931 42.8479 32.0277 42.8479C32.1244 42.8479 32.2202 42.8669 32.3095 42.9039C32.3988 42.9408 32.48 42.995 32.5484 43.0634L33.5524 44.0654L34.8726 42.7382L33.8699 41.7361C33.7318 41.5981 33.6542 41.411 33.6542 41.2158C33.6542 41.0207 33.7318 40.8335 33.8699 40.6956C34.0079 40.5576 34.1952 40.4801 34.3905 40.4801C34.5858 40.4801 34.773 40.5576 34.9111 40.6956L35.9125 41.6976L37.2327 40.377L36.2313 39.3763C36.1629 39.308 36.1087 39.2268 36.0717 39.1376C36.0347 39.0483 36.0156 38.9526 36.0156 38.856C36.0156 38.7594 36.0347 38.6637 36.0717 38.5744C36.1087 38.4852 36.1629 38.404 36.2313 38.3357C36.2997 38.2674 36.3808 38.2132 36.4701 38.1762C36.5595 38.1392 36.6552 38.1202 36.7519 38.1202C36.8486 38.1202 36.9443 38.1392 37.0337 38.1762C37.123 38.2132 37.2042 38.2674 37.2725 38.3357L38.274 39.3365L40.6726 36.9368L35.0705 31.3319L24.9381 41.4654ZM24.1824 44.9441L25.1041 45.8665L26.1773 44.7928L25.2556 43.8703L24.1824 44.9441ZM36.1104 30.3006L41.7138 35.9042L44.8907 32.7255L44.6251 32.46C44.5567 32.3917 44.5024 32.3106 44.4654 32.2213C44.4283 32.1321 44.4093 32.0364 44.4093 31.9397C44.4093 31.8431 44.4283 31.7474 44.4654 31.6581C44.5024 31.5688 44.5567 31.4877 44.6251 31.4195C44.7633 31.2817 44.9505 31.2043 45.1457 31.2043C45.3409 31.2043 45.5282 31.2817 45.6664 31.4195L48.0477 33.8085L50.0399 31.8176L40.2117 21.9841L38.2195 23.9749L42.3567 28.1133C42.4947 28.2513 42.5723 28.4384 42.5723 28.6336C42.5723 28.8287 42.4947 29.0159 42.3567 29.1539C42.2186 29.2918 42.0313 29.3694 41.836 29.3694C41.6407 29.3694 41.4535 29.2918 41.3154 29.1539L39.2887 27.1152L36.1104 30.3006ZM45.5083 25.204L46.8072 26.5047L49.9602 23.3511L48.66 22.0451L45.5083 25.204ZM47.4487 18.7536L53.2527 24.5589L54.4865 23.3246L48.6866 17.5166L47.4487 18.7536Z" fill="black"/>
</svg>
