<svg width="72" height="72" viewBox="0 0 72 72" fill="none" xmlns="http://www.w3.org/2000/svg">
<path d="M38.2193 20.9693L37.8159 20.3965C37.5874 20.0765 37.3689 19.7677 37.1756 19.4877L37.1655 19.4733C36.8848 19.0669 36.6193 18.6845 36.3504 18.3325L35.9975 17.8701L35.6428 18.3325C35.3689 18.6893 35.105 19.0717 34.826 19.4765C34.6277 19.7613 34.4058 20.0813 34.1806 20.3917L34.1403 20.4477C29.7706 26.6125 23.1521 35.9309 23.1521 40.7037C23.1423 42.3121 23.4678 43.9062 24.1097 45.394C24.7516 46.8817 25.6971 48.2335 26.8916 49.3709C29.3186 51.6491 32.5891 52.9277 35.9975 52.9309C37.6869 52.9402 39.3614 52.6303 40.9242 52.0193C42.4869 51.4082 43.9068 50.508 45.1016 49.3709C47.4939 47.0606 48.8369 43.9479 48.8411 40.7037C48.8411 36.0605 42.7016 27.3389 38.2193 20.9693ZM44.542 45.7469C43.6754 47.1258 42.4431 48.2636 40.9689 49.0461C40.8132 49.1341 40.6356 49.1805 40.4546 49.1805C40.2494 49.1756 40.0492 49.1185 39.8749 49.0153C39.7006 48.9121 39.5584 48.7664 39.463 48.5933C39.3317 48.3568 39.3025 48.0809 39.3816 47.8243C39.4607 47.5676 39.6419 47.3504 39.8865 47.2189C41.0541 46.6129 42.0315 45.7222 42.7185 44.6381C43.4204 43.5576 43.8251 42.3261 43.8949 41.0573C43.9114 40.8058 44.0271 40.5695 44.2187 40.3957C44.4103 40.2218 44.6639 40.1233 44.9285 40.1197H44.9991C45.2811 40.1379 45.5443 40.2609 45.7319 40.4621C45.8239 40.5574 45.8945 40.6695 45.9393 40.7917C45.9841 40.9139 46.0022 41.0435 45.9924 41.1725C45.95 42.7938 45.4489 44.3741 44.542 45.7469Z" fill="#F2F2F2"/>
<path d="M39.595 19.3096C38.9361 18.3848 38.3345 17.5208 37.7462 16.684L37.6992 16.6152C37.4269 16.2264 37.1647 15.8472 36.9075 15.4792C36.8171 15.3515 36.7033 15.2404 36.5714 15.1512C36.406 15.0468 36.2119 14.9911 36.0134 14.9912C35.8295 14.9925 35.6488 15.037 35.4872 15.1207C35.3257 15.2044 35.1883 15.3248 35.0874 15.4712C34.3546 16.5912 33.5143 17.7768 32.3983 19.3112C28.1344 25.2712 21 35.2456 21 40.7512C20.9983 42.6257 21.3873 44.4819 22.1447 46.2122C22.902 47.9425 24.0125 49.5125 25.4118 50.8312C28.2287 53.4902 32.0331 54.9849 36 54.9912C39.972 54.9719 43.7755 53.4612 46.5842 50.7873C49.3928 48.1135 50.9797 44.4925 51 40.7112C50.9966 35.2456 44.1361 25.6568 39.595 19.3096ZM45.1008 49.3704C43.906 50.5075 42.4861 51.4077 40.9234 52.0187C39.3606 52.6298 37.6861 52.9397 35.9966 52.9304C32.5883 52.9271 29.3178 51.6485 26.8907 49.3704C25.6963 48.233 24.7508 46.8812 24.1089 45.3935C23.467 43.9057 23.1415 42.3115 23.1513 40.7032C23.1513 35.9304 29.7647 26.612 34.1395 20.4472L34.1798 20.3912C34.405 20.0808 34.6269 19.7608 34.8252 19.476C35.1042 19.0712 35.3681 18.6888 35.642 18.332L35.9966 17.8696L36.3496 18.332C36.6185 18.684 36.884 19.0664 37.1647 19.4728L37.1748 19.4872C37.3681 19.7672 37.5865 20.0824 37.8151 20.396L38.2185 20.9688C42.7008 27.3384 48.8403 36.06 48.8403 40.7032C48.8361 43.9474 47.4931 47.0601 45.1008 49.3704Z" fill="black"/>
<path d="M45.9873 41.171C45.9463 42.7918 45.447 44.372 44.5419 45.7454C43.6753 47.1243 42.443 48.2621 40.9688 49.0446C40.8131 49.1325 40.6355 49.1789 40.4545 49.179C40.2493 49.174 40.0491 49.117 39.8748 49.0137C39.7005 48.9105 39.5583 48.7648 39.4629 48.5918C39.3316 48.3553 39.3024 48.0794 39.3815 47.8227C39.4606 47.566 39.6418 47.3489 39.8864 47.2174C41.054 46.6113 42.0314 45.7206 42.7184 44.6366C43.4203 43.556 43.825 42.3245 43.8948 41.0558C43.9113 40.8042 44.0269 40.5679 44.2186 40.3941C44.4102 40.2203 44.6638 40.1217 44.9284 40.1182H44.999C45.281 40.1364 45.5442 40.2593 45.7318 40.4606C45.8229 40.5562 45.8926 40.6685 45.9365 40.7907C45.9804 40.9128 45.9977 41.0422 45.9873 41.171Z" fill="black"/>
</svg>
