<svg width="72" height="72" viewBox="0 0 72 72" fill="none" xmlns="http://www.w3.org/2000/svg">
<g clip-path="url(#clip0_1006_12735)">
<path d="M48.4545 48.8434L52.2373 46.7812C52.7837 46.484 53.2374 46.0566 53.5528 45.5418C53.8681 45.027 54.034 44.443 54.0337 43.8487V28.1474C54.034 27.5531 53.8681 26.9691 53.5528 26.4543C53.2374 25.9395 52.7837 25.5121 52.2373 25.2149L37.7967 17.365C37.2504 17.0677 36.6305 16.9111 35.9995 16.9111C35.3685 16.9111 34.7487 17.0677 34.2023 17.365L19.7634 25.2149C19.2167 25.512 18.7628 25.9394 18.4472 26.4542C18.1316 26.969 17.9654 27.5529 17.9653 28.1474V43.8532C17.9662 44.4469 18.1328 45.03 18.4484 45.5439C18.764 46.0578 19.2175 46.4845 19.7634 46.7812L34.2023 54.6341C34.7487 54.9315 35.3685 55.088 35.9995 55.088C36.6305 55.088 37.2504 54.9315 37.7967 54.6341L42.1107 52.2945L48.4545 48.8434Z" fill="#F2F2F2"/>
<path d="M35.9944 56C35.1957 55.9987 34.4115 55.8 33.7199 55.4238L19.2809 47.5709C18.5888 47.1932 18.0138 46.6511 17.6136 45.9987C17.2134 45.3463 17.0018 44.6064 17 43.8529V28.1471C17.0014 27.3931 17.2128 26.6527 17.613 25.9997C18.0133 25.3468 18.5884 24.8042 19.2809 24.4261L33.7199 16.5732C34.4136 16.1976 35.1998 16 36 16C36.8002 16 37.5863 16.1976 38.2801 16.5732L52.7207 24.4261C53.413 24.8042 53.9879 25.3469 54.3879 25.9998C54.7879 26.6528 54.9989 27.3932 55 28.1471V43.8529C54.9991 44.6068 54.7881 45.3473 54.3881 46.0003C53.9881 46.6533 53.4131 47.1959 52.7207 47.5739L48.9379 49.63C48.7164 49.7455 48.4557 49.7744 48.2119 49.7106C47.968 49.6469 47.7604 49.4954 47.6339 49.289C47.5073 49.0825 47.4718 48.8375 47.5351 48.6067C47.5983 48.3758 47.7553 48.1776 47.9721 48.0546L51.7549 45.9985C52.1541 45.7805 52.4855 45.4676 52.716 45.0911C52.9465 44.7145 53.068 44.2876 53.0684 43.8529V28.1471C53.0669 27.7135 52.9449 27.2878 52.7144 26.9124C52.4839 26.537 52.1531 26.2251 51.7549 26.0076L37.3143 18.1501C36.9146 17.9332 36.4613 17.8191 36 17.8191C35.5387 17.8191 35.0854 17.9332 34.6857 18.1501L20.2467 26.0076C19.848 26.2246 19.5166 26.5365 19.2859 26.9119C19.0551 27.2873 18.9329 27.7133 18.9316 28.1471V43.8529C18.9323 44.2877 19.0541 44.7147 19.2849 45.0912C19.5157 45.4677 19.8474 45.7806 20.2467 45.9985L34.6857 53.8514C35.0856 54.0679 35.5388 54.1818 36 54.1818C36.4612 54.1818 36.9144 54.0679 37.3143 53.8514L48.2119 47.9246C48.3218 47.8622 48.4438 47.8211 48.5708 47.8037C48.6978 47.7863 48.8271 47.7929 48.9514 47.8231C49.0756 47.8533 49.1922 47.9065 49.2944 47.9796C49.3966 48.0528 49.4822 48.1443 49.5464 48.249C49.6106 48.3537 49.652 48.4694 49.6681 48.5893C49.6843 48.7092 49.675 48.8309 49.6406 48.9474C49.6063 49.0638 49.5477 49.1727 49.4682 49.2676C49.3887 49.3625 49.29 49.4415 49.1777 49.5L38.2801 55.4238C37.5853 55.8021 36.7968 56.0008 35.9944 56Z" fill="black"/>
<path d="M50.6378 35.0342H21.3623V36.9659H50.6378V35.0342Z" fill="black"/>
</g>
<defs>
<clipPath id="clip0_1006_12735">
<rect width="38" height="40" fill="white" transform="translate(17 16)"/>
</clipPath>
</defs>
</svg>
