<svg width="40" height="40" viewBox="0 0 40 40" fill="none" xmlns="http://www.w3.org/2000/svg">
<path fill-rule="evenodd" clip-rule="evenodd" d="M28.1546 3.60615L28.1564 4.93736C33.2352 5.32075 36.5902 8.6541 36.5956 13.7659L36.6156 28.7288C36.6229 34.3021 32.9877 37.7313 27.1607 37.7402L12.9273 37.7579C7.13679 37.765 3.45603 34.2542 3.44875 28.6649L3.42872 13.8778C3.42144 8.7322 6.65804 5.40772 11.7368 4.95866L11.735 3.62745C11.7332 2.84647 12.3339 2.25896 13.1349 2.25896C13.9358 2.25719 14.5365 2.84292 14.5384 3.6239L14.5402 4.86636L25.3531 4.85216L25.3513 3.6097C25.3495 2.82872 25.9502 2.24299 26.7511 2.24121C27.5339 2.23944 28.1528 2.82517 28.1546 3.60615ZM6.23374 14.4262L33.7939 14.3907V13.7694C33.7157 9.9533 31.7278 7.95116 28.1599 7.65296L28.1618 9.01967C28.1618 9.7829 27.5447 10.3882 26.7619 10.3882C25.961 10.3899 25.3584 9.78645 25.3584 9.02322L25.3566 7.58552L14.5437 7.59972L14.5455 9.03565C14.5455 9.80065 13.9466 10.4041 13.1456 10.4041C12.3447 10.4059 11.7421 9.8042 11.7421 9.0392L11.7403 7.67249C8.19062 8.01505 6.22646 10.0243 6.23192 13.8742L6.23374 14.4262ZM25.9959 22.4935V22.513C26.0141 23.3295 26.7058 23.9489 27.545 23.9312C28.3642 23.9116 29.0177 23.2354 28.9995 22.4189C28.9612 21.6379 28.3041 21.0007 27.4868 21.0025C26.6494 21.0203 25.9941 21.677 25.9959 22.4935ZM27.4993 30.4628C26.6619 30.4451 25.9866 29.7724 25.9848 28.9559C25.9666 28.1394 26.6383 27.4632 27.4756 27.4436H27.4938C28.3494 27.4436 29.043 28.1163 29.043 28.9506C29.0448 29.7848 28.3531 30.461 27.4993 30.4628ZM18.4959 22.5218C18.5323 23.3383 19.2258 23.9755 20.0632 23.94C20.8824 23.9027 21.5359 23.2282 21.4995 22.4118C21.4794 21.613 20.8059 20.9918 19.9868 20.9936C19.1494 21.0291 18.4941 21.7053 18.4959 22.5218ZM20.0705 30.3831C19.2331 30.4186 18.5414 29.7814 18.5032 28.9649C18.5032 28.1484 19.1567 27.4739 19.994 27.4367C20.8132 27.4349 21.4885 28.0561 21.5068 28.8531C21.545 29.6713 20.8897 30.3458 20.0705 30.3831ZM10.996 22.5839C11.0324 23.4004 11.726 24.0393 12.5633 24.0021C13.3825 23.9666 14.036 23.2903 13.9978 22.4738C13.9796 21.6751 13.306 21.0539 12.4851 21.0557C11.6477 21.0912 10.9942 21.7674 10.996 22.5839ZM12.5705 30.3919C11.7331 30.4291 11.0414 29.7902 11.0031 28.9737C11.0013 28.1572 11.6567 27.481 12.494 27.4455C13.3132 27.4437 13.9885 28.0649 14.0067 28.8636C14.045 29.6801 13.3915 30.3564 12.5705 30.3919Z" fill="#828282"/>
</svg>
