<svg width="48" height="48" viewBox="0 0 48 48" fill="none" xmlns="http://www.w3.org/2000/svg">
<rect width="48" height="48" rx="8" fill="#209F84"/>
<g clip-path="url(#clip0_1087_7)">
<path d="M39.3039 21.4969C38.3787 20.5717 36.8732 20.5717 35.9477 21.4971C35.663 21.7821 33.8455 23.601 33.5679 23.8789V17.6104C33.5679 16.9765 33.321 16.3806 32.8728 15.9324L30.6355 13.695C30.1873 13.2468 29.5914 13 28.9575 13H15.3745C14.066 13 13.0015 14.0645 13.0015 15.373L13.0015 35.6125C13.0015 36.921 14.066 37.9855 15.3745 37.9855H31.1948C32.5033 37.9855 33.5679 36.921 33.5679 35.6125V30.5938L39.3039 24.8529C40.2313 23.9256 40.2315 22.4244 39.3039 21.4969ZM28.8218 14.582C28.9713 14.582 29.2593 14.5561 29.5169 14.8137L31.7542 17.0511C32.0052 17.3021 31.9859 17.5772 31.9859 17.7461H28.8218V14.582ZM31.9858 35.6125C31.9858 36.0487 31.631 36.4035 31.1948 36.4035H15.3745C14.9383 36.4035 14.5835 36.0487 14.5835 35.6125V15.373C14.5835 14.9369 14.9383 14.582 15.3745 14.582H27.2397V18.5371C27.2397 18.974 27.5939 19.3281 28.0308 19.3281H31.9858V25.4623L29.652 27.7981L28.5339 28.9163C28.4471 29.0031 28.3816 29.109 28.3428 29.2255L27.2241 32.5815C27.1293 32.8657 27.2033 33.1791 27.4152 33.391C27.6273 33.6031 27.9408 33.6767 28.2247 33.5821L31.5807 32.4634C31.6972 32.4246 31.8031 32.3592 31.8899 32.2723L31.9858 32.1763V35.6125ZM30.2119 29.4756L31.3305 30.5943L30.9032 31.0216L29.2252 31.5809L29.7845 29.9029L30.2119 29.4756ZM32.4489 29.4754L31.3303 28.3567C31.926 27.7606 34.5716 25.1127 35.1327 24.5511L36.2514 25.6697L32.4489 29.4754ZM38.185 23.7345L37.3696 24.5506L36.2509 23.432L37.0666 22.6156C37.3752 22.3071 37.8769 22.3072 38.1853 22.6156C38.4937 22.9241 38.4953 23.4242 38.185 23.7345Z" fill="white"/>
<path d="M28.0303 20.9102H16.9561C16.5192 20.9102 16.165 21.2643 16.165 21.7012C16.165 22.138 16.5192 22.4922 16.9561 22.4922H28.0303C28.4671 22.4922 28.8213 22.138 28.8213 21.7012C28.8213 21.2643 28.4671 20.9102 28.0303 20.9102Z" fill="white"/>
<path d="M24.8662 25.8252H16.9561C16.5192 25.8252 16.165 26.1794 16.165 26.6162C16.165 27.0531 16.5192 27.4072 16.9561 27.4072H24.8662C25.3031 27.4072 25.6572 27.0531 25.6572 26.6162C25.6572 26.1794 25.3031 25.8252 24.8662 25.8252Z" fill="white"/>
</g>
<defs>
<clipPath id="clip0_1087_7">
<rect width="27" height="27" fill="white" transform="translate(13 13)"/>
</clipPath>
</defs>
</svg>
