<svg width="41" height="41" viewBox="0 0 41 41" fill="none" xmlns="http://www.w3.org/2000/svg">
<path fill-rule="evenodd" clip-rule="evenodd" d="M15.6264 27.3779H24.6033C25.2799 27.3779 25.8409 26.8112 25.8409 26.1279C25.8409 25.4445 25.2799 24.8945 24.6033 24.8945H15.6264C14.9498 24.8945 14.3888 25.4445 14.3888 26.1279C14.3888 26.8112 14.9498 27.3779 15.6264 27.3779ZM21.204 16.5612H15.6264C14.9498 16.5612 14.3888 17.1279 14.3888 17.8112C14.3888 18.4945 14.9498 19.0445 15.6264 19.0445H21.204C21.8805 19.0445 22.4416 18.4945 22.4416 17.8112C22.4416 17.1279 21.8805 16.5612 21.204 16.5612ZM32.9803 15.1039C33.3682 15.0994 33.7905 15.0945 34.1743 15.0945C34.5868 15.0945 34.9168 15.4279 34.9168 15.8445V29.2445C34.9168 33.3779 31.6 36.7279 27.5076 36.7279H14.3723C10.0818 36.7279 6.5835 33.2112 6.5835 28.8779V10.9112C6.5835 6.77787 9.91683 3.39453 14.0257 3.39453H22.8376C23.2667 3.39453 23.5967 3.74453 23.5967 4.1612V9.52786C23.5967 12.5779 26.0884 15.0779 29.1082 15.0945C29.8136 15.0945 30.4355 15.0998 30.9796 15.1044C31.403 15.108 31.7794 15.1112 32.1115 15.1112C32.3464 15.1112 32.6509 15.1077 32.9803 15.1039ZM33.4353 12.6712C32.0789 12.6762 30.4799 12.6712 29.3297 12.6595C27.5046 12.6595 26.0013 11.1412 26.0013 9.29787V4.90453C26.0013 4.1862 26.8643 3.82953 27.3577 4.34787C28.2519 5.28685 29.481 6.57798 30.704 7.86278C31.9211 9.14125 33.1322 10.4135 34.0013 11.3262C34.4832 11.8312 34.13 12.6695 33.4353 12.6712Z" fill="#AEAEAE"/>
</svg>
