<svg width="48" height="48" viewBox="0 0 48 48" fill="none" xmlns="http://www.w3.org/2000/svg">
<rect width="48" height="48" rx="8" fill="#209F84"/>
<g clip-path="url(#clip0_1087_32)">
<path d="M24.0099 24.9675H10.8878C10.7718 24.9675 10.6558 24.9675 10.5384 24.9675C9.80314 24.955 9.3335 24.5852 9.3335 24.009C9.3335 23.4328 9.79056 23.0394 10.523 23.0394C13.5049 23.0339 16.4868 23.0339 19.4686 23.0394H37.1964C37.3827 23.0289 37.5696 23.0317 37.7555 23.0477C38.3146 23.1239 38.6612 23.4397 38.6668 24.002C38.6724 24.5644 38.3272 24.8871 37.7709 24.9716C37.5847 24.9848 37.3979 24.9848 37.2118 24.9716L24.0099 24.9675Z" fill="white"/>
<path d="M34.7728 17.211C34.7728 18.1334 34.7812 19.0573 34.7728 19.9812C34.7658 20.6543 34.3647 21.0893 33.7944 21.0893C33.2241 21.0893 32.816 20.646 32.816 19.9673C32.8076 18.6058 32.7922 17.2442 32.8229 15.8827C32.8327 15.4076 32.7097 15.2483 32.2093 15.2607C30.8605 15.294 29.5089 15.2746 28.1558 15.2691C27.4108 15.2691 26.9538 14.9048 26.9426 14.3244C26.9314 13.7441 27.3996 13.341 28.1237 13.3327C29.9408 13.3253 31.7579 13.3253 33.5749 13.3327C34.4136 13.3327 34.7602 13.6803 34.7672 14.5073C34.7728 15.4103 34.7728 16.312 34.7728 17.211Z" fill="white"/>
<path d="M17.1258 34.6636C16.2186 34.6636 15.3087 34.6636 14.4016 34.6636C13.6104 34.6553 13.2512 34.3049 13.247 33.5209C13.2386 31.6981 13.2386 29.8758 13.247 28.0539C13.247 27.3794 13.6426 26.9292 14.2031 26.9153C14.7943 26.9015 15.1913 27.3572 15.1955 28.0788C15.2025 29.4404 15.2165 30.8019 15.1955 32.1621C15.1857 32.6192 15.3353 32.7466 15.7825 32.7383C17.1328 32.7106 18.483 32.7272 19.836 32.7314C20.6272 32.7314 21.094 33.1081 21.0758 33.7217C21.0633 34.3021 20.6076 34.6595 19.8598 34.6636C18.9429 34.6636 18.0343 34.6636 17.1258 34.6636Z" fill="white"/>
<path d="M13.2472 17.1961C13.2472 16.2957 13.2403 15.3954 13.2472 14.4965C13.2556 13.7139 13.6163 13.3427 14.3934 13.3399C16.2329 13.3298 18.0718 13.3275 19.9104 13.333C20.598 13.333 21.0453 13.7125 21.0649 14.2693C21.0859 14.8594 20.6288 15.2597 19.902 15.2638C18.5517 15.2638 17.2015 15.2902 15.8485 15.2555C15.3439 15.2431 15.165 15.3497 15.1817 15.8913C15.2251 17.2279 15.1999 18.5673 15.1929 19.9081C15.1929 20.6422 14.8071 21.0896 14.2145 21.084C13.6218 21.0785 13.2472 20.6297 13.2472 19.8956C13.2472 18.9953 13.2472 18.095 13.2472 17.1961Z" fill="white"/>
<path d="M34.7728 30.8555C34.7728 31.7544 34.7811 32.6561 34.7728 33.5537C34.763 34.2905 34.3996 34.6548 33.6545 34.6617C31.7909 34.671 29.9272 34.671 28.0635 34.6617C27.3912 34.6617 26.9453 34.2462 26.9453 33.6852C26.9453 33.1243 27.4108 32.7378 28.0873 32.7323C29.485 32.724 30.8828 32.7115 32.2806 32.7323C32.7153 32.7406 32.8397 32.6159 32.8257 32.1907C32.7991 30.8292 32.8131 29.469 32.8257 28.1074C32.8257 27.3803 33.2087 26.919 33.7901 26.9093C34.3716 26.8996 34.7686 27.3567 34.7755 28.0839C34.7728 29.0091 34.7728 29.9316 34.7728 30.8555Z" fill="white"/>
</g>
<defs>
<clipPath id="clip0_1087_32">
<rect width="29.3333" height="21.3333" fill="white" transform="translate(9.3335 13.333)"/>
</clipPath>
</defs>
</svg>
