<svg width="41" height="40" viewBox="0 0 41 40" fill="none" xmlns="http://www.w3.org/2000/svg">
<path fill-rule="evenodd" clip-rule="evenodd" d="M17.8986 3.33301C10.0031 3.33301 3.60254 9.80244 3.60254 17.7829C3.60254 25.7633 10.0031 32.2328 17.8986 32.2328C25.7941 32.2328 32.1947 25.7633 32.1947 17.7829C32.1947 13.9505 30.6885 10.2752 28.0075 7.56528C25.3264 4.8554 21.6902 3.33301 17.8986 3.33301ZM36.2159 32.8604L31.9581 29.4235C31.3139 28.7837 30.2813 28.7837 29.637 29.4235C29.303 29.76 29.1153 30.217 29.1153 30.6936C29.1153 31.1703 29.303 31.6273 29.637 31.9638L33.1704 36.0134C34.0318 36.884 35.4284 36.884 36.2898 36.0134C37.1512 35.1427 37.1512 33.7311 36.2898 32.8604H36.2159ZM14.1975 12.2942C14.1975 10.2451 15.8409 8.58403 17.8682 8.58403C18.8417 8.58403 19.7754 8.97493 20.4638 9.67073C21.1522 10.3665 21.5389 11.3102 21.5389 12.2942C21.5389 14.3433 19.8955 16.0045 17.8682 16.0045C15.8409 16.0045 14.1975 14.3433 14.1975 12.2942Z" fill="#828282"/>
</svg>
