<svg width="41" height="40" viewBox="0 0 41 40" fill="none" xmlns="http://www.w3.org/2000/svg">
<path fill-rule="evenodd" clip-rule="evenodd" d="M34.0291 22.634C34.6253 22.9507 35.0852 23.4507 35.4088 23.9507C36.039 24.984 35.9879 26.2507 35.3747 27.3673L34.1824 29.3673C33.5522 30.434 32.377 31.1007 31.1677 31.1007C30.5715 31.1007 29.9072 30.934 29.3622 30.6007C28.9194 30.3173 28.4084 30.2173 27.8633 30.2173C26.1771 30.2173 24.7634 31.6007 24.7123 33.2507C24.7123 35.1673 23.1453 36.6673 21.1865 36.6673H18.8701C16.8943 36.6673 15.3273 35.1673 15.3273 33.2507C15.2933 31.6007 13.8795 30.2173 12.1933 30.2173C11.6312 30.2173 11.1203 30.3173 10.6944 30.6007C10.1494 30.934 9.46809 31.1007 8.88899 31.1007C7.66264 31.1007 6.48739 30.434 5.85718 29.3673L4.68193 27.3673C4.05172 26.284 4.01766 24.984 4.64786 23.9507C4.92038 23.4507 5.43136 22.9507 6.01047 22.634C6.48739 22.4007 6.79397 22.0173 7.08353 21.5673C7.93516 20.134 7.42418 18.2507 5.97641 17.4007C4.29018 16.4507 3.74513 14.334 4.71599 12.684L5.85718 10.7173C6.84507 9.06732 8.95712 8.48398 10.6604 9.45065C12.1422 10.2507 14.0669 9.71732 14.9356 8.30065C15.2081 7.83398 15.3614 7.33398 15.3273 6.83398C15.2933 6.18398 15.4806 5.56732 15.8042 5.06732C16.4344 4.03398 17.5756 3.36732 18.819 3.33398H21.2206C22.481 3.33398 23.6222 4.03398 24.2524 5.06732C24.559 5.56732 24.7634 6.18398 24.7123 6.83398C24.6782 7.33398 24.8315 7.83398 25.104 8.30065C25.9727 9.71732 27.8974 10.2507 29.3963 9.45065C31.0825 8.48398 33.2116 9.06732 34.1824 10.7173L35.3236 12.684C36.3115 14.334 35.7665 16.4507 34.0632 17.4007C32.6154 18.2507 32.1045 20.134 32.9731 21.5673C33.2456 22.0173 33.5522 22.4007 34.0291 22.634ZM15.208 20.0173C15.208 22.634 17.3712 24.7173 20.0453 24.7173C22.7194 24.7173 24.8315 22.634 24.8315 20.0173C24.8315 17.4006 22.7194 15.3006 20.0453 15.3006C17.3712 15.3006 15.208 17.4006 15.208 20.0173Z" fill="#828282"/>
</svg>
